<svg width="412" height="56" viewBox="0 0 412 56" fill="none" xmlns="http://www.w3.org/2000/svg">
<mask id="mask0_1_14" style="mask-type:alpha" maskUnits="userSpaceOnUse" x="0" y="0" width="412" height="56">
<rect width="412" height="56" fill="#D9D9D9"/>
</mask>
<g mask="url(#mask0_1_14)">
<rect y="-9" width="413.995" height="75" fill="white"/>
<path d="M257.912 39.1973C257.912 38.9368 257.853 38.696 257.736 38.4746C257.625 38.2467 257.397 38.0417 257.052 37.8594C256.707 37.6706 256.187 37.5046 255.49 37.3613C254.709 37.1986 254.032 36.9935 253.459 36.7461C252.892 36.4922 252.453 36.1699 252.14 35.7793C251.834 35.3887 251.681 34.9036 251.681 34.3242C251.681 33.7643 251.841 33.2533 252.16 32.791C252.485 32.3223 252.941 31.9479 253.527 31.668C254.119 31.3815 254.81 31.2383 255.597 31.2383C256.444 31.2383 257.166 31.388 257.765 31.6875C258.371 31.9805 258.833 32.3776 259.152 32.8789C259.471 33.3737 259.631 33.9238 259.631 34.5293H257.804C257.804 34.0931 257.612 33.6797 257.228 33.2891C256.851 32.8984 256.307 32.7031 255.597 32.7031C255.103 32.7031 254.699 32.7812 254.386 32.9375C254.08 33.0872 253.856 33.2826 253.713 33.5234C253.576 33.7578 253.507 34.0052 253.507 34.2656C253.507 34.526 253.573 34.7539 253.703 34.9492C253.833 35.138 254.071 35.3073 254.416 35.457C254.767 35.6068 255.275 35.7565 255.939 35.9062C256.805 36.1016 257.518 36.3359 258.078 36.6094C258.638 36.8828 259.054 37.2181 259.328 37.6152C259.601 38.0124 259.738 38.4974 259.738 39.0703C259.738 39.6823 259.569 40.2259 259.23 40.7012C258.892 41.1699 258.416 41.5378 257.804 41.8047C257.192 42.0651 256.473 42.1953 255.646 42.1953C254.715 42.1953 253.927 42.0293 253.283 41.6973C252.638 41.3652 252.15 40.9388 251.818 40.418C251.486 39.8906 251.32 39.334 251.32 38.748H253.146C253.179 39.2428 253.322 39.6367 253.576 39.9297C253.836 40.2161 254.152 40.4212 254.523 40.5449C254.901 40.6686 255.275 40.7305 255.646 40.7305C256.141 40.7305 256.554 40.6654 256.886 40.5352C257.225 40.3984 257.479 40.2161 257.648 39.9883C257.824 39.7539 257.912 39.4902 257.912 39.1973ZM268 31.4336H269.943L265.705 43.6309C265.607 43.8913 265.477 44.1712 265.314 44.4707C265.158 44.7767 264.956 45.0664 264.709 45.3398C264.468 45.6133 264.172 45.8346 263.82 46.0039C263.468 46.1797 263.052 46.2676 262.57 46.2676C262.472 46.2676 262.355 46.2578 262.218 46.2383C262.082 46.2188 261.952 46.196 261.828 46.1699C261.704 46.1504 261.61 46.1309 261.545 46.1113V44.6562C261.597 44.6628 261.678 44.6725 261.789 44.6855C261.906 44.6986 261.987 44.7051 262.033 44.7051C262.645 44.7051 263.123 44.5781 263.468 44.3242C263.813 44.0703 264.093 43.6178 264.308 42.9668L265.06 40.9062L268 31.4336ZM265.656 39.6465L266.125 41.5508L264.816 42.2051L260.939 31.4336H262.931L265.656 39.6465ZM273.39 42H271.564V31.4336H273.293L273.39 33.6895V42ZM272.199 36.2773C272.212 35.3138 272.397 34.4544 272.756 33.6992C273.114 32.9375 273.612 32.3385 274.25 31.9023C274.894 31.4596 275.643 31.2383 276.496 31.2383C277.192 31.2383 277.791 31.3685 278.293 31.6289C278.8 31.8828 279.191 32.2897 279.465 32.8496C279.744 33.4095 279.884 34.1517 279.884 35.0762V42H278.058V35.0566C278.058 34.5033 277.977 34.0573 277.814 33.7188C277.658 33.3802 277.424 33.1361 277.111 32.9863C276.799 32.8301 276.414 32.752 275.959 32.752C275.509 32.752 275.103 32.8464 274.738 33.0352C274.373 33.224 274.058 33.4844 273.791 33.8164C273.524 34.1484 273.319 34.5293 273.175 34.959C273.032 35.3822 272.961 35.8314 272.961 36.3066L272.199 36.2773ZM286.857 40.7305C287.287 40.7305 287.684 40.6426 288.049 40.4668C288.413 40.2845 288.713 40.0371 288.947 39.7246C289.181 39.4121 289.315 39.0573 289.347 38.6602H291.076C291.043 39.2852 290.832 39.8678 290.441 40.4082C290.05 40.9421 289.543 41.375 288.918 41.707C288.293 42.0326 287.606 42.1953 286.857 42.1953C285.796 42.1953 284.917 41.9544 284.22 41.4727C283.524 40.9844 283.003 40.3398 282.658 39.5391C282.319 38.7383 282.15 37.8659 282.15 36.9219V36.5117C282.15 35.5612 282.323 34.6888 282.668 33.8945C283.013 33.0938 283.534 32.4525 284.23 31.9707C284.927 31.4824 285.802 31.2383 286.857 31.2383C287.684 31.2383 288.407 31.4076 289.025 31.7461C289.65 32.0781 290.138 32.5339 290.49 33.1133C290.848 33.6862 291.043 34.3372 291.076 35.0664H289.347C289.315 34.6302 289.191 34.2331 288.976 33.875C288.768 33.5169 288.481 33.2337 288.117 33.0254C287.759 32.8105 287.339 32.7031 286.857 32.7031C286.121 32.7031 285.542 32.8919 285.119 33.2695C284.702 33.6471 284.406 34.1289 284.23 34.7148C284.061 35.2943 283.976 35.8932 283.976 36.5117V36.9219C283.976 37.5404 284.061 38.1426 284.23 38.7285C284.399 39.3145 284.692 39.7962 285.109 40.1738C285.532 40.5449 286.115 40.7305 286.857 40.7305ZM304.299 34.7539C304.299 34.1224 304.11 33.6211 303.732 33.25C303.361 32.8724 302.811 32.6836 302.082 32.6836C301.632 32.6836 301.235 32.7617 300.89 32.918C300.552 33.0742 300.288 33.2793 300.099 33.5332C299.91 33.7871 299.816 34.0638 299.816 34.3633H297.99C297.99 33.8555 298.162 33.3639 298.507 32.8887C298.853 32.4069 299.338 32.013 299.963 31.707C300.594 31.3945 301.336 31.2383 302.189 31.2383C302.957 31.2383 303.638 31.3685 304.23 31.6289C304.823 31.8893 305.285 32.2832 305.617 32.8105C305.955 33.3314 306.125 33.9857 306.125 34.7734V39.6953C306.125 40.0469 306.154 40.4212 306.213 40.8184C306.278 41.2155 306.372 41.5573 306.496 41.8438V42H304.591C304.5 41.7917 304.429 41.515 304.377 41.1699C304.325 40.8184 304.299 40.4928 304.299 40.1934V34.7539ZM304.631 36.8633H302.814C301.785 36.8633 300.991 37.026 300.431 37.3516C299.871 37.6771 299.591 38.1654 299.591 38.8164C299.591 39.3242 299.761 39.7539 300.099 40.1055C300.444 40.457 300.946 40.6328 301.603 40.6328C302.157 40.6328 302.645 40.5156 303.068 40.2812C303.491 40.0469 303.827 39.7572 304.074 39.4121C304.321 39.0671 304.455 38.735 304.474 38.416L305.256 39.2852C305.21 39.5586 305.086 39.8613 304.884 40.1934C304.683 40.5254 304.412 40.8444 304.074 41.1504C303.742 41.4499 303.345 41.7005 302.882 41.9023C302.427 42.0977 301.912 42.1953 301.34 42.1953C300.623 42.1953 299.995 42.0586 299.455 41.7852C298.921 41.5052 298.504 41.1276 298.205 40.6523C297.912 40.1771 297.765 39.6497 297.765 39.0703C297.765 37.931 298.195 37.0684 299.054 36.4824C299.914 35.89 301.069 35.5938 302.521 35.5938H304.611L304.631 36.8633ZM310.793 42H308.966V31.4336H310.695L310.793 33.6895V42ZM309.601 36.2773C309.614 35.3138 309.8 34.4544 310.158 33.6992C310.516 32.9375 311.014 32.3385 311.652 31.9023C312.297 31.4596 313.045 31.2383 313.898 31.2383C314.595 31.2383 315.194 31.3685 315.695 31.6289C316.203 31.8828 316.593 32.2897 316.867 32.8496C317.147 33.4095 317.287 34.1517 317.287 35.0762V42H315.461V35.0566C315.461 34.5033 315.379 34.0573 315.216 33.7188C315.06 33.3802 314.826 33.1361 314.513 32.9863C314.201 32.8301 313.817 32.752 313.361 32.752C312.912 32.752 312.505 32.8464 312.14 33.0352C311.776 33.224 311.46 33.4844 311.193 33.8164C310.926 34.1484 310.721 34.5293 310.578 34.959C310.435 35.3822 310.363 35.8314 310.363 36.3066L309.601 36.2773ZM326.681 27H328.507V42H326.838L326.681 39.9492V27ZM319.582 36.6289C319.582 35.5547 319.754 34.6139 320.099 33.8066C320.451 32.9928 320.939 32.3613 321.564 31.9121C322.189 31.4629 322.922 31.2383 323.761 31.2383C324.647 31.2383 325.386 31.4434 325.978 31.8535C326.571 32.2572 327.033 32.8333 327.365 33.582C327.703 34.3307 327.922 35.2227 328.019 36.2578V37.2051C327.922 38.2272 327.707 39.1126 327.375 39.8613C327.043 40.6035 326.577 41.1797 325.978 41.5898C325.386 41.9935 324.64 42.1953 323.742 42.1953C322.915 42.1953 322.189 41.9642 321.564 41.502C320.939 41.0332 320.451 40.3952 320.099 39.5879C319.754 38.7806 319.582 37.8626 319.582 36.834V36.6289ZM321.408 36.834C321.408 37.5371 321.502 38.1784 321.691 38.7578C321.886 39.3372 322.189 39.8027 322.599 40.1543C323.009 40.4993 323.54 40.6719 324.191 40.6719C324.79 40.6719 325.282 40.5449 325.666 40.291C326.056 40.0371 326.369 39.7018 326.603 39.2852C326.838 38.8685 327.02 38.416 327.15 37.9277V35.5547C327.072 35.1966 326.958 34.8516 326.808 34.5195C326.665 34.181 326.476 33.8815 326.242 33.6211C326.014 33.3542 325.731 33.1426 325.392 32.9863C325.06 32.8301 324.666 32.752 324.211 32.752C323.553 32.752 323.016 32.9277 322.599 33.2793C322.189 33.6309 321.886 34.1029 321.691 34.6953C321.502 35.2812 321.408 35.9258 321.408 36.6289V36.834ZM338.097 27V39.9492L337.941 42H336.271V27H338.097ZM345.226 36.834C345.226 37.8626 345.067 38.7806 344.748 39.5879C344.429 40.3952 343.963 41.0332 343.351 41.502C342.739 41.9642 341.997 42.1953 341.125 42.1953C340.226 42.1953 339.478 41.9935 338.879 41.5898C338.28 41.1797 337.814 40.6035 337.482 39.8613C337.15 39.1126 336.932 38.2272 336.828 37.2051V36.2578C336.932 35.2227 337.15 34.3307 337.482 33.582C337.814 32.8333 338.276 32.2572 338.869 31.8535C339.468 31.4434 340.213 31.2383 341.105 31.2383C341.991 31.2383 342.739 31.4629 343.351 31.9121C343.963 32.3613 344.429 32.9928 344.748 33.8066C345.067 34.6139 345.226 35.5547 345.226 36.6289V36.834ZM343.4 36.6289C343.4 35.9258 343.312 35.2812 343.136 34.6953C342.961 34.1029 342.671 33.6309 342.267 33.2793C341.87 32.9277 341.33 32.752 340.646 32.752C340.197 32.752 339.803 32.8301 339.465 32.9863C339.132 33.1426 338.849 33.3542 338.615 33.6211C338.381 33.8815 338.188 34.181 338.039 34.5195C337.896 34.8516 337.788 35.1966 337.716 35.5547V37.9277C337.821 38.3835 337.99 38.8229 338.224 39.2461C338.459 39.6628 338.774 40.0046 339.172 40.2715C339.575 40.5384 340.073 40.6719 340.666 40.6719C341.317 40.6719 341.841 40.4993 342.238 40.1543C342.642 39.8027 342.935 39.3372 343.117 38.7578C343.306 38.1784 343.4 37.5371 343.4 36.834V36.6289ZM353.732 34.7539C353.732 34.1224 353.543 33.6211 353.166 33.25C352.795 32.8724 352.244 32.6836 351.515 32.6836C351.066 32.6836 350.669 32.7617 350.324 32.918C349.985 33.0742 349.722 33.2793 349.533 33.5332C349.344 33.7871 349.25 34.0638 349.25 34.3633H347.424C347.424 33.8555 347.596 33.3639 347.941 32.8887C348.286 32.4069 348.771 32.013 349.396 31.707C350.028 31.3945 350.77 31.2383 351.623 31.2383C352.391 31.2383 353.071 31.3685 353.664 31.6289C354.256 31.8893 354.718 32.2832 355.05 32.8105C355.389 33.3314 355.558 33.9857 355.558 34.7734V39.6953C355.558 40.0469 355.588 40.4212 355.646 40.8184C355.711 41.2155 355.806 41.5573 355.929 41.8438V42H354.025C353.934 41.7917 353.862 41.515 353.81 41.1699C353.758 40.8184 353.732 40.4928 353.732 40.1934V34.7539ZM354.064 36.8633H352.248C351.219 36.8633 350.425 37.026 349.865 37.3516C349.305 37.6771 349.025 38.1654 349.025 38.8164C349.025 39.3242 349.194 39.7539 349.533 40.1055C349.878 40.457 350.379 40.6328 351.037 40.6328C351.59 40.6328 352.078 40.5156 352.502 40.2812C352.925 40.0469 353.26 39.7572 353.507 39.4121C353.755 39.0671 353.888 38.735 353.908 38.416L354.689 39.2852C354.644 39.5586 354.52 39.8613 354.318 40.1934C354.116 40.5254 353.846 40.8444 353.507 41.1504C353.175 41.4499 352.778 41.7005 352.316 41.9023C351.86 42.0977 351.346 42.1953 350.773 42.1953C350.057 42.1953 349.429 42.0586 348.888 41.7852C348.354 41.5052 347.938 41.1276 347.638 40.6523C347.345 40.1771 347.199 39.6497 347.199 39.0703C347.199 37.931 347.629 37.0684 348.488 36.4824C349.347 35.89 350.503 35.5938 351.955 35.5938H354.045L354.064 36.8633ZM362.638 40.7305C363.068 40.7305 363.465 40.6426 363.83 40.4668C364.194 40.2845 364.494 40.0371 364.728 39.7246C364.963 39.4121 365.096 39.0573 365.129 38.6602H366.857C366.825 39.2852 366.613 39.8678 366.222 40.4082C365.832 40.9421 365.324 41.375 364.699 41.707C364.074 42.0326 363.387 42.1953 362.638 42.1953C361.577 42.1953 360.698 41.9544 360.002 41.4727C359.305 40.9844 358.784 40.3398 358.439 39.5391C358.101 38.7383 357.931 37.8659 357.931 36.9219V36.5117C357.931 35.5612 358.104 34.6888 358.449 33.8945C358.794 33.0938 359.315 32.4525 360.011 31.9707C360.708 31.4824 361.584 31.2383 362.638 31.2383C363.465 31.2383 364.188 31.4076 364.806 31.7461C365.431 32.0781 365.92 32.5339 366.271 33.1133C366.629 33.6862 366.825 34.3372 366.857 35.0664H365.129C365.096 34.6302 364.972 34.2331 364.757 33.875C364.549 33.5169 364.263 33.2337 363.898 33.0254C363.54 32.8105 363.12 32.7031 362.638 32.7031C361.903 32.7031 361.323 32.8919 360.9 33.2695C360.483 33.6471 360.187 34.1289 360.011 34.7148C359.842 35.2943 359.757 35.8932 359.757 36.5117V36.9219C359.757 37.5404 359.842 38.1426 360.011 38.7285C360.181 39.3145 360.474 39.7962 360.89 40.1738C361.313 40.5449 361.896 40.7305 362.638 40.7305ZM370.724 42H368.898V27H370.724V42ZM372.58 36.3555L369.982 39.0312L369.836 37.1172L371.691 34.9199L374.953 31.4336H377.17L372.58 36.3555ZM371.75 36.9512L372.697 35.3496L377.658 42H375.509L371.75 36.9512ZM385.509 31.4336H387.336V42H385.597L385.509 39.5586V31.4336ZM386.613 37.3125C386.613 38.25 386.479 39.0866 386.213 39.8223C385.946 40.5579 385.509 41.1374 384.904 41.5605C384.299 41.9837 383.488 42.1953 382.472 42.1953C381.437 42.1953 380.601 41.8893 379.963 41.2773C379.325 40.6654 379.006 39.6562 379.006 38.25V31.4336H380.832V38.2695C380.832 38.9076 380.923 39.4023 381.105 39.7539C381.294 40.099 381.535 40.3398 381.828 40.4766C382.127 40.6068 382.44 40.6719 382.765 40.6719C383.534 40.6719 384.142 40.5254 384.591 40.2324C385.041 39.9329 385.363 39.5293 385.558 39.0215C385.754 38.5137 385.851 37.9505 385.851 37.332L386.613 37.3125ZM391.906 46.0625H390.08V31.4336H391.74L391.906 33.4648V46.0625ZM399.015 36.834C399.015 37.8626 398.856 38.7806 398.537 39.5879C398.218 40.3952 397.752 41.0332 397.14 41.502C396.535 41.9642 395.796 42.1953 394.924 42.1953C394.019 42.1953 393.26 42 392.648 41.6094C392.036 41.2188 391.558 40.6654 391.213 39.9492C390.868 39.2266 390.643 38.3737 390.539 37.3906V36.2578C390.643 35.2227 390.868 34.3307 391.213 33.582C391.564 32.8333 392.043 32.2572 392.648 31.8535C393.26 31.4434 394.009 31.2383 394.894 31.2383C395.78 31.2383 396.528 31.4629 397.14 31.9121C397.752 32.3613 398.218 32.9928 398.537 33.8066C398.856 34.6139 399.015 35.5547 399.015 36.6289V36.834ZM397.189 36.6289C397.189 35.9258 397.088 35.2812 396.886 34.6953C396.691 34.1029 396.382 33.6309 395.959 33.2793C395.542 32.9277 395.005 32.752 394.347 32.752C393.898 32.752 393.507 32.8301 393.175 32.9863C392.843 33.1426 392.56 33.3542 392.326 33.6211C392.091 33.8815 391.899 34.181 391.75 34.5195C391.606 34.8516 391.499 35.1966 391.427 35.5547V38.1035C391.558 38.5592 391.737 38.9889 391.965 39.3926C392.199 39.7897 392.508 40.112 392.892 40.3594C393.283 40.6068 393.774 40.7305 394.367 40.7305C395.018 40.7305 395.552 40.5514 395.968 40.1934C396.385 39.8353 396.691 39.3633 396.886 38.7773C397.088 38.1849 397.189 37.5371 397.189 36.834V36.6289Z" fill="#1E1E1E"/>
<mask id="mask1_1_14" style="mask-type:alpha" maskUnits="userSpaceOnUse" x="14" y="11" width="229" height="39">
<path d="M18.4358 29.5222L18.3967 25.2449H24.4709C26.0204 25.2449 27.1663 24.9584 27.9084 24.3855C28.6506 23.7996 29.0217 22.9597 29.0217 21.866C29.0217 20.616 28.6571 19.7175 27.928 19.1707C27.1988 18.6238 26.0465 18.3504 24.4709 18.3504H20.5647V41.8269H14.4124V13.3894H24.4709C27.8173 13.3894 30.4345 14.0274 32.3225 15.3035C34.2105 16.5795 35.1545 18.5457 35.1545 21.2019C35.1545 22.3608 34.8876 23.448 34.3538 24.4636C33.8329 25.4662 32.9996 26.28 31.8538 26.905C30.7079 27.53 29.217 27.8621 27.3811 27.9011L25.6624 29.5222H18.4358ZM16.7561 41.8269L19.1389 36.8855H25.4084C26.8798 36.8855 27.954 36.5535 28.6311 35.8894C29.3082 35.2123 29.6467 34.3725 29.6467 33.3699C29.6467 32.5756 29.51 31.892 29.2366 31.3191C28.9631 30.7462 28.5334 30.3035 27.9475 29.991C27.3746 29.6785 26.6129 29.5222 25.6624 29.5222H19.9592L19.9983 25.2449H27.0491L28.4749 26.9441C30.2327 26.905 31.6454 27.198 32.7131 27.823C33.7808 28.435 34.5556 29.2423 35.0374 30.2449C35.5191 31.2475 35.76 32.3087 35.76 33.4285C35.76 36.2019 34.8681 38.2983 33.0842 39.7175C31.3004 41.1238 28.7418 41.8269 25.4084 41.8269H16.7561ZM51.0139 27.7449C51.0139 26.7944 50.7795 26.0392 50.3108 25.4793C49.842 24.9194 49.0933 24.6394 48.0647 24.6394C47.4788 24.6394 46.9709 24.7371 46.5413 24.9324C46.1116 25.1277 45.7861 25.4076 45.5647 25.7722C45.3433 26.1238 45.2327 26.56 45.2327 27.0808H39.3342C39.3342 25.8308 39.7053 24.698 40.4475 23.6824C41.1897 22.6537 42.2379 21.8334 43.592 21.2215C44.9462 20.6095 46.5413 20.3035 48.3772 20.3035C50.0178 20.3035 51.4827 20.5834 52.7717 21.1433C54.0608 21.6902 55.0764 22.517 55.8186 23.6238C56.5608 24.7306 56.9319 26.1173 56.9319 27.784V36.6121C56.9319 37.8621 57.0035 38.8517 57.1467 39.5808C57.303 40.31 57.5178 40.948 57.7913 41.4949V41.8269H51.8538C51.5673 41.228 51.3525 40.4793 51.2092 39.5808C51.079 38.6824 51.0139 37.7709 51.0139 36.8465V27.7449ZM51.8147 32.2957H48.8069C47.3746 32.2957 46.3394 32.6082 45.7014 33.2332C45.0634 33.8451 44.7444 34.5873 44.7444 35.4597C44.7444 36.1238 44.9788 36.6707 45.4475 37.1004C45.9163 37.53 46.5478 37.7449 47.342 37.7449C48.1624 37.7449 48.8655 37.5886 49.4514 37.2761C50.0504 36.9506 50.5061 36.5665 50.8186 36.1238C51.1441 35.6681 51.3004 35.2514 51.2874 34.8738L52.8108 37.4129C52.6025 37.9337 52.3225 38.4741 51.9709 39.034C51.6324 39.5938 51.1962 40.1147 50.6624 40.5965C50.1285 41.0782 49.4775 41.4688 48.7092 41.7683C47.954 42.0678 47.0621 42.2175 46.0334 42.2175C44.7053 42.2175 43.4944 41.9506 42.4006 41.4168C41.3069 40.8699 40.441 40.1212 39.803 39.1707C39.165 38.2071 38.8459 37.1069 38.8459 35.8699C38.8459 33.6563 39.6663 31.9441 41.3069 30.7332C42.9475 29.5092 45.3889 28.8972 48.6311 28.8972H51.7756L51.8147 32.2957ZM69.9788 37.4715C70.6428 37.4715 71.2288 37.3478 71.7366 37.1004C72.2444 36.853 72.635 36.5014 72.9084 36.0457C73.1949 35.5899 73.3446 35.0496 73.3577 34.4246H78.9045C78.8915 35.948 78.4944 37.2957 77.7131 38.4675C76.9319 39.6394 75.8772 40.5574 74.5491 41.2215C73.2209 41.8855 71.7301 42.2175 70.0764 42.2175C67.8889 42.2175 66.066 41.7423 64.6077 40.7918C63.1624 39.8412 62.0751 38.5587 61.3459 36.9441C60.6298 35.3295 60.2717 33.5261 60.2717 31.534V31.0066C60.2717 29.0014 60.6298 27.1915 61.3459 25.5769C62.0751 23.9623 63.1624 22.6798 64.6077 21.7293C66.066 20.7787 67.8824 20.3035 70.0569 20.3035C71.8017 20.3035 73.3316 20.642 74.6467 21.3191C75.9749 21.9832 77.01 22.9402 77.7522 24.1902C78.5074 25.4272 78.8915 26.9116 78.9045 28.6433H73.3577C73.3446 27.9793 73.2079 27.3803 72.9475 26.8465C72.7001 26.2996 72.3225 25.8634 71.8147 25.5379C71.3069 25.2123 70.6819 25.0496 69.9397 25.0496C68.898 25.0496 68.1038 25.3295 67.5569 25.8894C67.023 26.4493 66.6584 27.185 66.4631 28.0965C66.2678 28.9949 66.1702 29.9649 66.1702 31.0066V31.534C66.1702 32.5886 66.2613 33.5717 66.4436 34.4832C66.6389 35.3816 67.01 36.1043 67.5569 36.6511C68.1168 37.198 68.9241 37.4715 69.9788 37.4715ZM87.9475 41.8269H82.0491V11.8074H87.9475V41.8269ZM92.1467 31.2996L87.1467 36.2996L84.9788 32.0613L88.9436 26.9441L94.178 20.6941H101.268L92.1467 31.2996ZM89.0803 32.1785L93.1819 28.6824L101.893 41.8269H95.1155L89.0803 32.1785ZM115.975 20.6941H121.873V41.8269H116.346L115.975 36.7293V20.6941ZM118.338 32.3152C118.338 34.2162 118.045 35.9155 117.459 37.4129C116.886 38.8972 116.014 40.0691 114.842 40.9285C113.683 41.7879 112.218 42.2175 110.448 42.2175C108.364 42.2175 106.671 41.6121 105.369 40.4011C104.08 39.1772 103.436 37.1655 103.436 34.366V20.6941H109.334V34.405C109.334 35.1212 109.451 35.7071 109.686 36.1629C109.933 36.6056 110.272 36.9311 110.701 37.1394C111.144 37.3347 111.645 37.4324 112.205 37.4324C113.338 37.4324 114.224 37.211 114.862 36.7683C115.513 36.3256 115.968 35.7201 116.229 34.9519C116.502 34.1837 116.639 33.3178 116.639 32.3543L118.338 32.3152ZM131.932 49.9519H126.033V20.6941H131.502L131.932 24.7566V49.9519ZM145.213 31.4363C145.213 33.4806 144.894 35.3165 144.256 36.9441C143.631 38.5717 142.707 39.8608 141.483 40.8113C140.272 41.7488 138.774 42.2175 136.99 42.2175C135.259 42.2175 133.833 41.7488 132.713 40.8113C131.606 39.8608 130.747 38.5847 130.135 36.9832C129.523 35.3816 129.08 33.6108 128.807 31.6707V31.0652C129.067 28.9949 129.503 27.1524 130.115 25.5379C130.74 23.9103 131.606 22.6342 132.713 21.7097C133.833 20.7722 135.252 20.3035 136.971 20.3035C138.755 20.3035 140.259 20.7527 141.483 21.6511C142.707 22.5366 143.631 23.7866 144.256 25.4011C144.894 27.0027 145.213 28.8777 145.213 31.0261V31.4363ZM139.315 31.0261C139.315 29.8803 139.184 28.8647 138.924 27.9793C138.677 27.0808 138.267 26.3777 137.694 25.8699C137.121 25.3491 136.359 25.0886 135.408 25.0886C134.679 25.0886 134.054 25.2058 133.533 25.4402C133.026 25.6616 132.602 25.9936 132.264 26.4363C131.938 26.879 131.691 27.4259 131.522 28.0769C131.365 28.7149 131.274 29.4571 131.248 30.3035V32.4519C131.3 33.4155 131.463 34.2748 131.737 35.03C132.023 35.7853 132.466 36.3842 133.065 36.8269C133.664 37.2566 134.458 37.4715 135.448 37.4715C136.411 37.4715 137.173 37.198 137.733 36.6511C138.293 36.1043 138.696 35.3751 138.944 34.4636C139.191 33.5392 139.315 32.53 139.315 31.4363V31.0261ZM161.365 13.3894H164.647L165.526 16.7293L159.549 41.8269H155.994L155.76 38.0574L161.365 13.3894ZM157.83 38.116L157.264 41.8269H153.338L147.088 13.3894H153.201L157.83 38.116ZM174.705 13.3894H180.799L174.569 41.8269H170.623L170.135 38.0183L174.705 13.3894ZM172.205 38.1746L171.912 41.8269H168.358L162.342 16.7097L163.299 13.3894H166.541L172.205 38.1746ZM194.022 27.7449C194.022 26.7944 193.787 26.0392 193.319 25.4793C192.85 24.9194 192.101 24.6394 191.073 24.6394C190.487 24.6394 189.979 24.7371 189.549 24.9324C189.119 25.1277 188.794 25.4076 188.573 25.7722C188.351 26.1238 188.24 26.56 188.24 27.0808H182.342C182.342 25.8308 182.713 24.698 183.455 23.6824C184.198 22.6537 185.246 21.8334 186.6 21.2215C187.954 20.6095 189.549 20.3035 191.385 20.3035C193.026 20.3035 194.49 20.5834 195.78 21.1433C197.069 21.6902 198.084 22.517 198.826 23.6238C199.569 24.7306 199.94 26.1173 199.94 27.784V36.6121C199.94 37.8621 200.011 38.8517 200.155 39.5808C200.311 40.31 200.526 40.948 200.799 41.4949V41.8269H194.862C194.575 41.228 194.36 40.4793 194.217 39.5808C194.087 38.6824 194.022 37.7709 194.022 36.8465V27.7449ZM194.823 32.2957H191.815C190.382 32.2957 189.347 32.6082 188.709 33.2332C188.071 33.8451 187.752 34.5873 187.752 35.4597C187.752 36.1238 187.987 36.6707 188.455 37.1004C188.924 37.53 189.556 37.7449 190.35 37.7449C191.17 37.7449 191.873 37.5886 192.459 37.2761C193.058 36.9506 193.514 36.5665 193.826 36.1238C194.152 35.6681 194.308 35.2514 194.295 34.8738L195.819 37.4129C195.61 37.9337 195.33 38.4741 194.979 39.034C194.64 39.5938 194.204 40.1147 193.67 40.5965C193.136 41.0782 192.485 41.4688 191.717 41.7683C190.962 42.0678 190.07 42.2175 189.041 42.2175C187.713 42.2175 186.502 41.9506 185.408 41.4168C184.315 40.8699 183.449 40.1212 182.811 39.1707C182.173 38.2071 181.854 37.1069 181.854 35.8699C181.854 33.6563 182.674 31.9441 184.315 30.7332C185.955 29.5092 188.397 28.8972 191.639 28.8972H194.783L194.823 32.2957ZM215.584 20.6941H221.756L214.686 41.8269H210.955L211.073 37.4715L215.584 20.6941ZM212.615 37.491L212.713 41.8269H208.983L201.893 20.6941H208.104L212.615 37.491ZM234.022 42.2175C231.795 42.2175 229.888 41.7553 228.299 40.8308C226.724 39.9063 225.513 38.6694 224.666 37.1199C223.833 35.5704 223.416 33.8582 223.416 31.9832V31.2215C223.416 29.1121 223.813 27.2371 224.608 25.5965C225.415 23.9428 226.561 22.6472 228.045 21.7097C229.53 20.7722 231.3 20.3035 233.358 20.3035C235.402 20.3035 237.121 20.7332 238.514 21.5925C239.907 22.4519 240.962 23.6629 241.678 25.2254C242.394 26.7748 242.752 28.5978 242.752 30.6941V33.1941H225.897V29.2293H236.951V28.7605C236.951 28.0313 236.821 27.3868 236.561 26.8269C236.3 26.267 235.903 25.8308 235.369 25.5183C234.849 25.2058 234.165 25.0496 233.319 25.0496C232.355 25.0496 231.58 25.323 230.994 25.8699C230.408 26.4168 229.979 27.1524 229.705 28.0769C229.445 29.0014 229.315 30.0496 229.315 31.2215V31.9832C229.315 33.0639 229.517 34.0144 229.92 34.8347C230.324 35.655 230.903 36.2996 231.658 36.7683C232.414 37.2241 233.325 37.4519 234.393 37.4519C235.395 37.4519 236.333 37.2696 237.205 36.905C238.078 36.5274 238.82 35.9415 239.432 35.1472L242.283 38.409C241.619 39.3595 240.591 40.2319 239.198 41.0261C237.817 41.8204 236.092 42.2175 234.022 42.2175Z" fill="#1E1E1E"/>
</mask>
<g mask="url(#mask1_1_14)">
<path d="M18.4358 29.5222L18.3967 25.2449H24.4709C26.0204 25.2449 27.1663 24.9584 27.9084 24.3855C28.6506 23.7996 29.0217 22.9597 29.0217 21.866C29.0217 20.616 28.6571 19.7175 27.928 19.1707C27.1988 18.6238 26.0465 18.3504 24.4709 18.3504H20.5647V41.8269H14.4124V13.3894H24.4709C27.8173 13.3894 30.4345 14.0274 32.3225 15.3035C34.2105 16.5795 35.1545 18.5457 35.1545 21.2019C35.1545 22.3608 34.8876 23.448 34.3538 24.4636C33.8329 25.4662 32.9996 26.28 31.8538 26.905C30.7079 27.53 29.217 27.8621 27.3811 27.9011L25.6624 29.5222H18.4358ZM16.7561 41.8269L19.1389 36.8855H25.4084C26.8798 36.8855 27.954 36.5535 28.6311 35.8894C29.3082 35.2123 29.6467 34.3725 29.6467 33.3699C29.6467 32.5756 29.51 31.892 29.2366 31.3191C28.9631 30.7462 28.5334 30.3035 27.9475 29.991C27.3746 29.6785 26.6129 29.5222 25.6624 29.5222H19.9592L19.9983 25.2449H27.0491L28.4749 26.9441C30.2327 26.905 31.6454 27.198 32.7131 27.823C33.7808 28.435 34.5556 29.2423 35.0374 30.2449C35.5191 31.2475 35.76 32.3087 35.76 33.4285C35.76 36.2019 34.8681 38.2983 33.0842 39.7175C31.3004 41.1238 28.7418 41.8269 25.4084 41.8269H16.7561ZM51.0139 27.7449C51.0139 26.7944 50.7795 26.0392 50.3108 25.4793C49.842 24.9194 49.0933 24.6394 48.0647 24.6394C47.4788 24.6394 46.9709 24.7371 46.5413 24.9324C46.1116 25.1277 45.7861 25.4076 45.5647 25.7722C45.3433 26.1238 45.2327 26.56 45.2327 27.0808H39.3342C39.3342 25.8308 39.7053 24.698 40.4475 23.6824C41.1897 22.6537 42.2379 21.8334 43.592 21.2215C44.9462 20.6095 46.5413 20.3035 48.3772 20.3035C50.0178 20.3035 51.4827 20.5834 52.7717 21.1433C54.0608 21.6902 55.0764 22.517 55.8186 23.6238C56.5608 24.7306 56.9319 26.1173 56.9319 27.784V36.6121C56.9319 37.8621 57.0035 38.8517 57.1467 39.5808C57.303 40.31 57.5178 40.948 57.7913 41.4949V41.8269H51.8538C51.5673 41.228 51.3525 40.4793 51.2092 39.5808C51.079 38.6824 51.0139 37.7709 51.0139 36.8465V27.7449ZM51.8147 32.2957H48.8069C47.3746 32.2957 46.3394 32.6082 45.7014 33.2332C45.0634 33.8451 44.7444 34.5873 44.7444 35.4597C44.7444 36.1238 44.9788 36.6707 45.4475 37.1004C45.9163 37.53 46.5478 37.7449 47.342 37.7449C48.1624 37.7449 48.8655 37.5886 49.4514 37.2761C50.0504 36.9506 50.5061 36.5665 50.8186 36.1238C51.1441 35.6681 51.3004 35.2514 51.2874 34.8738L52.8108 37.4129C52.6025 37.9337 52.3225 38.4741 51.9709 39.034C51.6324 39.5938 51.1962 40.1147 50.6624 40.5965C50.1285 41.0782 49.4775 41.4688 48.7092 41.7683C47.954 42.0678 47.0621 42.2175 46.0334 42.2175C44.7053 42.2175 43.4944 41.9506 42.4006 41.4168C41.3069 40.8699 40.441 40.1212 39.803 39.1707C39.165 38.2071 38.8459 37.1069 38.8459 35.8699C38.8459 33.6563 39.6663 31.9441 41.3069 30.7332C42.9475 29.5092 45.3889 28.8972 48.6311 28.8972H51.7756L51.8147 32.2957ZM69.9788 37.4715C70.6428 37.4715 71.2288 37.3478 71.7366 37.1004C72.2444 36.853 72.635 36.5014 72.9084 36.0457C73.1949 35.5899 73.3446 35.0496 73.3577 34.4246H78.9045C78.8915 35.948 78.4944 37.2957 77.7131 38.4675C76.9319 39.6394 75.8772 40.5574 74.5491 41.2215C73.2209 41.8855 71.7301 42.2175 70.0764 42.2175C67.8889 42.2175 66.066 41.7423 64.6077 40.7918C63.1624 39.8412 62.0751 38.5587 61.3459 36.9441C60.6298 35.3295 60.2717 33.5261 60.2717 31.534V31.0066C60.2717 29.0014 60.6298 27.1915 61.3459 25.5769C62.0751 23.9623 63.1624 22.6798 64.6077 21.7293C66.066 20.7787 67.8824 20.3035 70.0569 20.3035C71.8017 20.3035 73.3316 20.642 74.6467 21.3191C75.9749 21.9832 77.01 22.9402 77.7522 24.1902C78.5074 25.4272 78.8915 26.9116 78.9045 28.6433H73.3577C73.3446 27.9793 73.2079 27.3803 72.9475 26.8465C72.7001 26.2996 72.3225 25.8634 71.8147 25.5379C71.3069 25.2123 70.6819 25.0496 69.9397 25.0496C68.898 25.0496 68.1038 25.3295 67.5569 25.8894C67.023 26.4493 66.6584 27.185 66.4631 28.0965C66.2678 28.9949 66.1702 29.9649 66.1702 31.0066V31.534C66.1702 32.5886 66.2613 33.5717 66.4436 34.4832C66.6389 35.3816 67.01 36.1043 67.5569 36.6511C68.1168 37.198 68.9241 37.4715 69.9788 37.4715ZM87.9475 41.8269H82.0491V11.8074H87.9475V41.8269ZM92.1467 31.2996L87.1467 36.2996L84.9788 32.0613L88.9436 26.9441L94.178 20.6941H101.268L92.1467 31.2996ZM89.0803 32.1785L93.1819 28.6824L101.893 41.8269H95.1155L89.0803 32.1785ZM115.975 20.6941H121.873V41.8269H116.346L115.975 36.7293V20.6941ZM118.338 32.3152C118.338 34.2162 118.045 35.9155 117.459 37.4129C116.886 38.8972 116.014 40.0691 114.842 40.9285C113.683 41.7879 112.218 42.2175 110.448 42.2175C108.364 42.2175 106.671 41.6121 105.369 40.4011C104.08 39.1772 103.436 37.1655 103.436 34.366V20.6941H109.334V34.405C109.334 35.1212 109.451 35.7071 109.686 36.1629C109.933 36.6056 110.272 36.9311 110.701 37.1394C111.144 37.3347 111.645 37.4324 112.205 37.4324C113.338 37.4324 114.224 37.211 114.862 36.7683C115.513 36.3256 115.968 35.7201 116.229 34.9519C116.502 34.1837 116.639 33.3178 116.639 32.3543L118.338 32.3152ZM131.932 49.9519H126.033V20.6941H131.502L131.932 24.7566V49.9519ZM145.213 31.4363C145.213 33.4806 144.894 35.3165 144.256 36.9441C143.631 38.5717 142.707 39.8608 141.483 40.8113C140.272 41.7488 138.774 42.2175 136.99 42.2175C135.259 42.2175 133.833 41.7488 132.713 40.8113C131.606 39.8608 130.747 38.5847 130.135 36.9832C129.523 35.3816 129.08 33.6108 128.807 31.6707V31.0652C129.067 28.9949 129.503 27.1524 130.115 25.5379C130.74 23.9103 131.606 22.6342 132.713 21.7097C133.833 20.7722 135.252 20.3035 136.971 20.3035C138.755 20.3035 140.259 20.7527 141.483 21.6511C142.707 22.5366 143.631 23.7866 144.256 25.4011C144.894 27.0027 145.213 28.8777 145.213 31.0261V31.4363ZM139.315 31.0261C139.315 29.8803 139.184 28.8647 138.924 27.9793C138.677 27.0808 138.267 26.3777 137.694 25.8699C137.121 25.3491 136.359 25.0886 135.408 25.0886C134.679 25.0886 134.054 25.2058 133.533 25.4402C133.026 25.6616 132.602 25.9936 132.264 26.4363C131.938 26.879 131.691 27.4259 131.522 28.0769C131.365 28.7149 131.274 29.4571 131.248 30.3035V32.4519C131.3 33.4155 131.463 34.2748 131.737 35.03C132.023 35.7853 132.466 36.3842 133.065 36.8269C133.664 37.2566 134.458 37.4715 135.448 37.4715C136.411 37.4715 137.173 37.198 137.733 36.6511C138.293 36.1043 138.696 35.3751 138.944 34.4636C139.191 33.5392 139.315 32.53 139.315 31.4363V31.0261ZM161.365 13.3894H164.647L165.526 16.7293L159.549 41.8269H155.994L155.76 38.0574L161.365 13.3894ZM157.83 38.116L157.264 41.8269H153.338L147.088 13.3894H153.201L157.83 38.116ZM174.705 13.3894H180.799L174.569 41.8269H170.623L170.135 38.0183L174.705 13.3894ZM172.205 38.1746L171.912 41.8269H168.358L162.342 16.7097L163.299 13.3894H166.541L172.205 38.1746ZM194.022 27.7449C194.022 26.7944 193.787 26.0392 193.319 25.4793C192.85 24.9194 192.101 24.6394 191.073 24.6394C190.487 24.6394 189.979 24.7371 189.549 24.9324C189.119 25.1277 188.794 25.4076 188.573 25.7722C188.351 26.1238 188.24 26.56 188.24 27.0808H182.342C182.342 25.8308 182.713 24.698 183.455 23.6824C184.198 22.6537 185.246 21.8334 186.6 21.2215C187.954 20.6095 189.549 20.3035 191.385 20.3035C193.026 20.3035 194.49 20.5834 195.78 21.1433C197.069 21.6902 198.084 22.517 198.826 23.6238C199.569 24.7306 199.94 26.1173 199.94 27.784V36.6121C199.94 37.8621 200.011 38.8517 200.155 39.5808C200.311 40.31 200.526 40.948 200.799 41.4949V41.8269H194.862C194.575 41.228 194.36 40.4793 194.217 39.5808C194.087 38.6824 194.022 37.7709 194.022 36.8465V27.7449ZM194.823 32.2957H191.815C190.382 32.2957 189.347 32.6082 188.709 33.2332C188.071 33.8451 187.752 34.5873 187.752 35.4597C187.752 36.1238 187.987 36.6707 188.455 37.1004C188.924 37.53 189.556 37.7449 190.35 37.7449C191.17 37.7449 191.873 37.5886 192.459 37.2761C193.058 36.9506 193.514 36.5665 193.826 36.1238C194.152 35.6681 194.308 35.2514 194.295 34.8738L195.819 37.4129C195.61 37.9337 195.33 38.4741 194.979 39.034C194.64 39.5938 194.204 40.1147 193.67 40.5965C193.136 41.0782 192.485 41.4688 191.717 41.7683C190.962 42.0678 190.07 42.2175 189.041 42.2175C187.713 42.2175 186.502 41.9506 185.408 41.4168C184.315 40.8699 183.449 40.1212 182.811 39.1707C182.173 38.2071 181.854 37.1069 181.854 35.8699C181.854 33.6563 182.674 31.9441 184.315 30.7332C185.955 29.5092 188.397 28.8972 191.639 28.8972H194.783L194.823 32.2957ZM215.584 20.6941H221.756L214.686 41.8269H210.955L211.073 37.4715L215.584 20.6941ZM212.615 37.491L212.713 41.8269H208.983L201.893 20.6941H208.104L212.615 37.491ZM234.022 42.2175C231.795 42.2175 229.888 41.7553 228.299 40.8308C226.724 39.9063 225.513 38.6694 224.666 37.1199C223.833 35.5704 223.416 33.8582 223.416 31.9832V31.2215C223.416 29.1121 223.813 27.2371 224.608 25.5965C225.415 23.9428 226.561 22.6472 228.045 21.7097C229.53 20.7722 231.3 20.3035 233.358 20.3035C235.402 20.3035 237.121 20.7332 238.514 21.5925C239.907 22.4519 240.962 23.6629 241.678 25.2254C242.394 26.7748 242.752 28.5978 242.752 30.6941V33.1941H225.897V29.2293H236.951V28.7605C236.951 28.0313 236.821 27.3868 236.561 26.8269C236.3 26.267 235.903 25.8308 235.369 25.5183C234.849 25.2058 234.165 25.0496 233.319 25.0496C232.355 25.0496 231.58 25.323 230.994 25.8699C230.408 26.4168 229.979 27.1524 229.705 28.0769C229.445 29.0014 229.315 30.0496 229.315 31.2215V31.9832C229.315 33.0639 229.517 34.0144 229.92 34.8347C230.324 35.655 230.903 36.2996 231.658 36.7683C232.414 37.2241 233.325 37.4519 234.393 37.4519C235.395 37.4519 236.333 37.2696 237.205 36.905C238.078 36.5274 238.82 35.9415 239.432 35.1472L242.283 38.409C241.619 39.3595 240.591 40.2319 239.198 41.0261C237.817 41.8204 236.092 42.2175 234.022 42.2175Z" fill="#1E1E1E"/>
<path d="M58.8571 28.0066C37.3094 16.4066 13.6336 29.5066 4.4891 37.5066L0 68.5066L245.903 61.0066C245.404 47.5066 247.499 23.7 245.903 20.5C243.908 16.5 235.079 30.436 227.947 33.5C224.455 35 219.949 30.9434 212.983 26.5C207.496 23 187.046 29.5066 182.557 33.5066C178.068 37.5066 150.634 32 137.666 24.5C127.291 18.5 109.069 26.6733 99.2591 33.5066C94.77 36.5066 80.4048 39.6066 58.8571 28.0066Z" fill="#578DCD"/>
</g>
</g>
</svg>
