<svg width="1024" height="224" viewBox="0 0 1024 224" fill="none" xmlns="http://www.w3.org/2000/svg">
<mask id="mask0_1_15" style="mask-type:alpha" maskUnits="userSpaceOnUse" x="0" y="0" width="1024" height="224">
<rect width="1024" height="224" fill="#D9D9D9"/>
</mask>
<g mask="url(#mask0_1_15)">
<rect width="1024" height="224" fill="white"/>
<mask id="mask1_1_15" style="mask-type:alpha" maskUnits="userSpaceOnUse" x="61" y="46" width="900" height="153">
<path d="M72.8838 113.026L72.7275 101.073H98.8213C105.28 101.073 110.488 99.4587 114.446 96.2296C118.405 93.0004 120.384 88.4952 120.384 82.7139C120.384 76.4639 118.561 71.9327 114.915 69.1202C111.321 66.2556 105.826 64.8233 98.4306 64.8233H76.2431V166.308H61.0869V52.5577H98.4306C110.045 52.5577 119.134 54.9796 125.696 59.8233C132.259 64.615 135.54 72.2973 135.54 82.8702C135.54 87.5577 134.342 91.8025 131.946 95.6046C129.55 99.3546 126.191 102.427 121.868 104.823C117.597 107.219 112.623 108.756 106.946 109.433L101.634 113.026H72.8838ZM66.8682 166.308L75.54 154.12H100.931C108.066 154.12 113.587 152.271 117.493 148.573C121.399 144.875 123.353 139.901 123.353 133.651C123.353 129.433 122.597 125.787 121.087 122.714C119.576 119.589 117.233 117.193 114.056 115.526C110.879 113.86 106.738 113.026 101.634 113.026H80.1494L80.3056 101.073H109.681L112.884 105.448C118.353 105.917 122.988 107.454 126.79 110.058C130.592 112.662 133.483 115.995 135.462 120.058C137.493 124.12 138.509 128.599 138.509 133.495C138.509 144.172 135.071 152.323 128.196 157.948C121.373 163.521 112.285 166.308 100.931 166.308H66.8682ZM208.353 108.339C208.353 103.287 206.842 99.2764 203.821 96.3077C200.853 93.2869 196.451 91.7764 190.618 91.7764C187.024 91.7764 183.847 92.4014 181.087 93.6514C178.379 94.9014 176.269 96.5421 174.759 98.5733C173.248 100.605 172.493 102.818 172.493 105.214H157.884C157.884 101.151 159.264 97.2191 162.024 93.4171C164.785 89.5629 168.665 86.4119 173.665 83.9639C178.717 81.4639 184.655 80.2139 191.478 80.2139C197.623 80.2139 203.066 81.2556 207.806 83.3389C212.545 85.4223 216.243 88.5733 218.899 92.7921C221.608 96.9587 222.962 102.193 222.962 108.495V147.87C222.962 150.683 223.196 153.677 223.665 156.855C224.186 160.032 224.941 162.766 225.931 165.058V166.308H210.696C209.967 164.641 209.394 162.427 208.978 159.667C208.561 156.855 208.353 154.25 208.353 151.855V108.339ZM211.009 125.214H196.478C188.248 125.214 181.894 126.516 177.415 129.12C172.936 131.724 170.696 135.631 170.696 140.839C170.696 144.901 172.05 148.339 174.759 151.151C177.519 153.964 181.53 155.37 186.79 155.37C191.217 155.37 195.123 154.433 198.509 152.558C201.894 150.683 204.576 148.365 206.556 145.605C208.535 142.844 209.603 140.188 209.759 137.636L216.009 144.589C215.644 146.776 214.655 149.198 213.04 151.855C211.425 154.511 209.264 157.063 206.556 159.511C203.899 161.907 200.722 163.912 197.024 165.526C193.379 167.089 189.264 167.87 184.681 167.87C178.951 167.87 173.925 166.776 169.603 164.589C165.332 162.349 161.998 159.329 159.603 155.526C157.259 151.724 156.087 147.506 156.087 142.87C156.087 133.756 159.524 126.855 166.399 122.167C173.274 117.427 182.519 115.058 194.134 115.058H210.853L211.009 125.214ZM279.603 156.151C283.04 156.151 286.217 155.448 289.134 154.042C292.05 152.584 294.446 150.605 296.321 148.105C298.196 145.605 299.264 142.766 299.524 139.589H313.353C313.092 144.589 311.399 149.25 308.274 153.573C305.149 157.844 301.087 161.308 296.087 163.964C291.087 166.568 285.592 167.87 279.603 167.87C271.113 167.87 264.082 165.943 258.509 162.089C252.936 158.183 248.769 153.026 246.009 146.62C243.3 140.214 241.946 133.235 241.946 125.683V122.401C241.946 114.797 243.326 107.818 246.087 101.464C248.847 95.0577 253.014 89.9275 258.587 86.0733C264.16 82.1671 271.165 80.2139 279.603 80.2139C286.217 80.2139 291.998 81.5681 296.946 84.2764C301.946 86.9327 305.853 90.5785 308.665 95.2139C311.53 99.7973 313.092 105.006 313.353 110.839H299.524C299.264 107.349 298.274 104.172 296.556 101.308C294.889 98.4431 292.597 96.1775 289.681 94.5108C286.816 92.7921 283.457 91.9327 279.603 91.9327C273.717 91.9327 269.082 93.4431 265.696 96.4639C262.363 99.4848 259.993 103.339 258.587 108.026C257.233 112.662 256.556 117.454 256.556 122.401V125.683C256.556 130.631 257.233 135.448 258.587 140.136C259.941 144.823 262.285 148.677 265.618 151.698C269.004 154.667 273.665 156.151 279.603 156.151ZM344.29 166.308H329.681V46.3077H344.29V166.308ZM359.134 121.151L338.352 142.558L337.181 127.245L352.024 109.667L378.118 81.7764H395.852L359.134 121.151ZM352.493 125.917L360.071 113.105L399.759 166.308H382.571L352.493 125.917ZM462.571 81.7764H477.181V166.308H463.274L462.571 146.776V81.7764ZM471.399 128.808C471.399 136.308 470.332 143 468.196 148.886C466.061 154.771 462.571 159.407 457.727 162.792C452.884 166.177 446.399 167.87 438.274 167.87C429.993 167.87 423.3 165.422 418.196 160.526C413.092 155.631 410.54 147.558 410.54 136.308V81.7764H425.149V136.464C425.149 141.568 425.879 145.526 427.337 148.339C428.847 151.099 430.774 153.026 433.118 154.12C435.514 155.162 438.014 155.683 440.618 155.683C446.764 155.683 451.634 154.511 455.227 152.167C458.821 149.771 461.399 146.542 462.962 142.48C464.524 138.417 465.306 133.912 465.306 128.964L471.399 128.808ZM513.743 198.808H499.134V81.7764H512.415L513.743 98.0264V198.808ZM570.618 124.98C570.618 133.209 569.342 140.552 566.79 147.011C564.238 153.469 560.514 158.573 555.618 162.323C550.774 166.021 544.863 167.87 537.884 167.87C530.644 167.87 524.576 166.308 519.681 163.183C514.785 160.058 510.957 155.631 508.196 149.901C505.436 144.12 503.639 137.297 502.806 129.433V120.37C503.639 112.089 505.436 104.954 508.196 98.9639C511.009 92.9744 514.837 88.365 519.681 85.1358C524.576 81.8546 530.566 80.2139 537.649 80.2139C544.733 80.2139 550.722 82.0108 555.618 85.6046C560.514 89.1983 564.238 94.2504 566.79 100.761C569.342 107.219 570.618 114.745 570.618 123.339V124.98ZM556.009 123.339C556.009 117.714 555.201 112.558 553.587 107.87C552.024 103.131 549.55 99.3546 546.165 96.5421C542.832 93.7296 538.535 92.3233 533.274 92.3233C529.681 92.3233 526.556 92.9483 523.899 94.1983C521.243 95.4483 518.977 97.141 517.102 99.2764C515.227 101.36 513.691 103.756 512.493 106.464C511.347 109.12 510.488 111.881 509.915 114.745V135.136C510.957 138.782 512.389 142.219 514.212 145.448C516.087 148.625 518.561 151.204 521.634 153.183C524.759 155.162 528.691 156.151 533.431 156.151C538.639 156.151 542.91 154.719 546.243 151.855C549.576 148.99 552.024 145.214 553.587 140.526C555.201 135.787 556.009 130.605 556.009 124.98V123.339ZM643.665 52.5577H654.759L648.352 83.2608L624.134 166.308H613.118L621.165 132.011L643.665 52.5577ZM615.852 130.526L621.165 166.308H610.306L582.806 52.5577H597.962L615.852 130.526ZM701.321 52.5577H716.556L689.056 166.308H678.196L683.821 130.448L701.321 52.5577ZM678.274 132.011L686.243 166.308H675.227L651.868 83.2608L645.54 52.5577H656.399L678.274 132.011ZM778.196 108.339C778.196 103.287 776.686 99.2764 773.665 96.3077C770.696 93.2869 766.295 91.7764 760.462 91.7764C756.868 91.7764 753.691 92.4014 750.931 93.6514C748.222 94.9014 746.113 96.5421 744.602 98.5733C743.092 100.605 742.337 102.818 742.337 105.214H727.727C727.727 101.151 729.108 97.2191 731.868 93.4171C734.629 89.5629 738.509 86.4119 743.509 83.9639C748.561 81.4639 754.498 80.2139 761.321 80.2139C767.467 80.2139 772.91 81.2556 777.649 83.3389C782.389 85.4223 786.087 88.5733 788.743 92.7921C791.451 96.9587 792.806 102.193 792.806 108.495V147.87C792.806 150.683 793.04 153.677 793.509 156.855C794.03 160.032 794.785 162.766 795.774 165.058V166.308H780.54C779.811 164.641 779.238 162.427 778.821 159.667C778.405 156.855 778.196 154.25 778.196 151.855V108.339ZM780.852 125.214H766.321C758.092 125.214 751.738 126.516 747.259 129.12C742.78 131.724 740.54 135.631 740.54 140.839C740.54 144.901 741.894 148.339 744.602 151.151C747.363 153.964 751.373 155.37 756.634 155.37C761.061 155.37 764.967 154.433 768.352 152.558C771.738 150.683 774.42 148.365 776.399 145.605C778.379 142.844 779.446 140.188 779.602 137.636L785.852 144.589C785.488 146.776 784.498 149.198 782.884 151.855C781.269 154.511 779.108 157.063 776.399 159.511C773.743 161.907 770.566 163.912 766.868 165.526C763.222 167.089 759.108 167.87 754.524 167.87C748.795 167.87 743.769 166.776 739.446 164.589C735.175 162.349 731.842 159.329 729.446 155.526C727.102 151.724 725.931 147.506 725.931 142.87C725.931 133.756 729.368 126.855 736.243 122.167C743.118 117.427 752.363 115.058 763.977 115.058H780.696L780.852 125.214ZM863.04 81.7764H877.962L847.649 166.308H837.806L840.071 153.339L863.04 81.7764ZM844.602 153.73L846.321 166.308H836.556L805.931 81.7764H820.852L844.602 153.73ZM927.102 167.87C919.238 167.87 912.389 166.125 906.556 162.636C900.774 159.094 896.269 154.25 893.04 148.105C889.863 141.959 888.274 134.927 888.274 127.011V123.651C888.274 114.485 890.019 106.672 893.509 100.214C897.05 93.7035 901.634 88.7556 907.259 85.3702C912.936 81.9327 918.925 80.2139 925.227 80.2139C933.352 80.2139 939.967 82.0369 945.071 85.6827C950.227 89.2764 954.004 94.1983 956.399 100.448C958.847 106.646 960.071 113.677 960.071 121.542V128.026H896.946V116.308H945.462V115.214C945.254 111.464 944.498 107.818 943.196 104.276C941.894 100.683 939.811 97.74 936.946 95.4483C934.082 93.1046 930.175 91.9327 925.227 91.9327C920.852 91.9327 916.972 93.1827 913.587 95.6827C910.254 98.1306 907.623 101.724 905.696 106.464C903.821 111.151 902.884 116.881 902.884 123.651V127.011C902.884 132.375 903.873 137.271 905.852 141.698C907.832 146.073 910.696 149.589 914.446 152.245C918.196 154.849 922.675 156.151 927.884 156.151C932.988 156.151 937.311 155.11 940.852 153.026C944.394 150.943 947.493 148.157 950.149 144.667L958.977 151.542C956.269 155.709 952.363 159.485 947.259 162.87C942.207 166.204 935.488 167.87 927.102 167.87Z" fill="#1E1E1E"/>
</mask>
<g mask="url(#mask1_1_15)">
<path d="M72.8838 113.026L72.7275 101.073H98.8213C105.28 101.073 110.488 99.4587 114.446 96.2296C118.405 93.0004 120.384 88.4952 120.384 82.7139C120.384 76.4639 118.561 71.9327 114.915 69.1202C111.321 66.2556 105.826 64.8233 98.4306 64.8233H76.2431V166.308H61.0869V52.5577H98.4306C110.045 52.5577 119.134 54.9796 125.696 59.8233C132.259 64.615 135.54 72.2973 135.54 82.8702C135.54 87.5577 134.342 91.8025 131.946 95.6046C129.55 99.3546 126.191 102.427 121.868 104.823C117.597 107.219 112.623 108.756 106.946 109.433L101.634 113.026H72.8838ZM66.8682 166.308L75.54 154.12H100.931C108.066 154.12 113.587 152.271 117.493 148.573C121.399 144.875 123.353 139.901 123.353 133.651C123.353 129.433 122.597 125.787 121.087 122.714C119.576 119.589 117.233 117.193 114.056 115.526C110.879 113.86 106.738 113.026 101.634 113.026H80.1494L80.3056 101.073H109.681L112.884 105.448C118.353 105.917 122.988 107.454 126.79 110.058C130.592 112.662 133.483 115.995 135.462 120.058C137.493 124.12 138.509 128.599 138.509 133.495C138.509 144.172 135.071 152.323 128.196 157.948C121.373 163.521 112.285 166.308 100.931 166.308H66.8682ZM208.353 108.339C208.353 103.287 206.842 99.2764 203.821 96.3077C200.853 93.2869 196.451 91.7764 190.618 91.7764C187.024 91.7764 183.847 92.4014 181.087 93.6514C178.379 94.9014 176.269 96.5421 174.759 98.5733C173.248 100.605 172.493 102.818 172.493 105.214H157.884C157.884 101.151 159.264 97.2191 162.024 93.4171C164.785 89.5629 168.665 86.4119 173.665 83.9639C178.717 81.4639 184.655 80.2139 191.478 80.2139C197.623 80.2139 203.066 81.2556 207.806 83.3389C212.545 85.4223 216.243 88.5733 218.899 92.7921C221.608 96.9587 222.962 102.193 222.962 108.495V147.87C222.962 150.683 223.196 153.677 223.665 156.855C224.186 160.032 224.941 162.766 225.931 165.058V166.308H210.696C209.967 164.641 209.394 162.427 208.978 159.667C208.561 156.855 208.353 154.25 208.353 151.855V108.339ZM211.009 125.214H196.478C188.248 125.214 181.894 126.516 177.415 129.12C172.936 131.724 170.696 135.631 170.696 140.839C170.696 144.901 172.05 148.339 174.759 151.151C177.519 153.964 181.53 155.37 186.79 155.37C191.217 155.37 195.123 154.433 198.509 152.558C201.894 150.683 204.576 148.365 206.556 145.605C208.535 142.844 209.603 140.188 209.759 137.636L216.009 144.589C215.644 146.776 214.655 149.198 213.04 151.855C211.425 154.511 209.264 157.063 206.556 159.511C203.899 161.907 200.722 163.912 197.024 165.526C193.379 167.089 189.264 167.87 184.681 167.87C178.951 167.87 173.925 166.776 169.603 164.589C165.332 162.349 161.998 159.329 159.603 155.526C157.259 151.724 156.087 147.506 156.087 142.87C156.087 133.756 159.524 126.855 166.399 122.167C173.274 117.427 182.519 115.058 194.134 115.058H210.853L211.009 125.214ZM279.603 156.151C283.04 156.151 286.217 155.448 289.134 154.042C292.05 152.584 294.446 150.605 296.321 148.105C298.196 145.605 299.264 142.766 299.524 139.589H313.353C313.092 144.589 311.399 149.25 308.274 153.573C305.149 157.844 301.087 161.308 296.087 163.964C291.087 166.568 285.592 167.87 279.603 167.87C271.113 167.87 264.082 165.943 258.509 162.089C252.936 158.183 248.769 153.026 246.009 146.62C243.3 140.214 241.946 133.235 241.946 125.683V122.401C241.946 114.797 243.326 107.818 246.087 101.464C248.847 95.0577 253.014 89.9275 258.587 86.0733C264.16 82.1671 271.165 80.2139 279.603 80.2139C286.217 80.2139 291.998 81.5681 296.946 84.2764C301.946 86.9327 305.853 90.5785 308.665 95.2139C311.53 99.7973 313.092 105.006 313.353 110.839H299.524C299.264 107.349 298.274 104.172 296.556 101.308C294.889 98.4431 292.597 96.1775 289.681 94.5108C286.816 92.7921 283.457 91.9327 279.603 91.9327C273.717 91.9327 269.082 93.4431 265.696 96.4639C262.363 99.4848 259.993 103.339 258.587 108.026C257.233 112.662 256.556 117.454 256.556 122.401V125.683C256.556 130.631 257.233 135.448 258.587 140.136C259.941 144.823 262.285 148.677 265.618 151.698C269.004 154.667 273.665 156.151 279.603 156.151ZM344.29 166.308H329.681V46.3077H344.29V166.308ZM359.134 121.151L338.352 142.558L337.181 127.245L352.024 109.667L378.118 81.7764H395.852L359.134 121.151ZM352.493 125.917L360.071 113.105L399.759 166.308H382.571L352.493 125.917ZM462.571 81.7764H477.181V166.308H463.274L462.571 146.776V81.7764ZM471.399 128.808C471.399 136.308 470.332 143 468.196 148.886C466.061 154.771 462.571 159.407 457.727 162.792C452.884 166.177 446.399 167.87 438.274 167.87C429.993 167.87 423.3 165.422 418.196 160.526C413.092 155.631 410.54 147.558 410.54 136.308V81.7764H425.149V136.464C425.149 141.568 425.879 145.526 427.337 148.339C428.847 151.099 430.774 153.026 433.118 154.12C435.514 155.162 438.014 155.683 440.618 155.683C446.764 155.683 451.634 154.511 455.227 152.167C458.821 149.771 461.399 146.542 462.962 142.48C464.524 138.417 465.306 133.912 465.306 128.964L471.399 128.808ZM513.743 198.808H499.134V81.7764H512.415L513.743 98.0264V198.808ZM570.618 124.98C570.618 133.209 569.342 140.552 566.79 147.011C564.238 153.469 560.514 158.573 555.618 162.323C550.774 166.021 544.863 167.87 537.884 167.87C530.644 167.87 524.576 166.308 519.681 163.183C514.785 160.058 510.957 155.631 508.196 149.901C505.436 144.12 503.639 137.297 502.806 129.433V120.37C503.639 112.089 505.436 104.954 508.196 98.9639C511.009 92.9744 514.837 88.365 519.681 85.1358C524.576 81.8546 530.566 80.2139 537.649 80.2139C544.733 80.2139 550.722 82.0108 555.618 85.6046C560.514 89.1983 564.238 94.2504 566.79 100.761C569.342 107.219 570.618 114.745 570.618 123.339V124.98ZM556.009 123.339C556.009 117.714 555.201 112.558 553.587 107.87C552.024 103.131 549.55 99.3546 546.165 96.5421C542.832 93.7296 538.535 92.3233 533.274 92.3233C529.681 92.3233 526.556 92.9483 523.899 94.1983C521.243 95.4483 518.977 97.141 517.102 99.2764C515.227 101.36 513.691 103.756 512.493 106.464C511.347 109.12 510.488 111.881 509.915 114.745V135.136C510.957 138.782 512.389 142.219 514.212 145.448C516.087 148.625 518.561 151.204 521.634 153.183C524.759 155.162 528.691 156.151 533.431 156.151C538.639 156.151 542.91 154.719 546.243 151.855C549.576 148.99 552.024 145.214 553.587 140.526C555.201 135.787 556.009 130.605 556.009 124.98V123.339ZM643.665 52.5577H654.759L648.352 83.2608L624.134 166.308H613.118L621.165 132.011L643.665 52.5577ZM615.852 130.526L621.165 166.308H610.306L582.806 52.5577H597.962L615.852 130.526ZM701.321 52.5577H716.556L689.056 166.308H678.196L683.821 130.448L701.321 52.5577ZM678.274 132.011L686.243 166.308H675.227L651.868 83.2608L645.54 52.5577H656.399L678.274 132.011ZM778.196 108.339C778.196 103.287 776.686 99.2764 773.665 96.3077C770.696 93.2869 766.295 91.7764 760.462 91.7764C756.868 91.7764 753.691 92.4014 750.931 93.6514C748.222 94.9014 746.113 96.5421 744.602 98.5733C743.092 100.605 742.337 102.818 742.337 105.214H727.727C727.727 101.151 729.108 97.2191 731.868 93.4171C734.629 89.5629 738.509 86.4119 743.509 83.9639C748.561 81.4639 754.498 80.2139 761.321 80.2139C767.467 80.2139 772.91 81.2556 777.649 83.3389C782.389 85.4223 786.087 88.5733 788.743 92.7921C791.451 96.9587 792.806 102.193 792.806 108.495V147.87C792.806 150.683 793.04 153.677 793.509 156.855C794.03 160.032 794.785 162.766 795.774 165.058V166.308H780.54C779.811 164.641 779.238 162.427 778.821 159.667C778.405 156.855 778.196 154.25 778.196 151.855V108.339ZM780.852 125.214H766.321C758.092 125.214 751.738 126.516 747.259 129.12C742.78 131.724 740.54 135.631 740.54 140.839C740.54 144.901 741.894 148.339 744.602 151.151C747.363 153.964 751.373 155.37 756.634 155.37C761.061 155.37 764.967 154.433 768.352 152.558C771.738 150.683 774.42 148.365 776.399 145.605C778.379 142.844 779.446 140.188 779.602 137.636L785.852 144.589C785.488 146.776 784.498 149.198 782.884 151.855C781.269 154.511 779.108 157.063 776.399 159.511C773.743 161.907 770.566 163.912 766.868 165.526C763.222 167.089 759.108 167.87 754.524 167.87C748.795 167.87 743.769 166.776 739.446 164.589C735.175 162.349 731.842 159.329 729.446 155.526C727.102 151.724 725.931 147.506 725.931 142.87C725.931 133.756 729.368 126.855 736.243 122.167C743.118 117.427 752.363 115.058 763.977 115.058H780.696L780.852 125.214ZM863.04 81.7764H877.962L847.649 166.308H837.806L840.071 153.339L863.04 81.7764ZM844.602 153.73L846.321 166.308H836.556L805.931 81.7764H820.852L844.602 153.73ZM927.102 167.87C919.238 167.87 912.389 166.125 906.556 162.636C900.774 159.094 896.269 154.25 893.04 148.105C889.863 141.959 888.274 134.927 888.274 127.011V123.651C888.274 114.485 890.019 106.672 893.509 100.214C897.05 93.7035 901.634 88.7556 907.259 85.3702C912.936 81.9327 918.925 80.2139 925.227 80.2139C933.352 80.2139 939.967 82.0369 945.071 85.6827C950.227 89.2764 954.004 94.1983 956.399 100.448C958.847 106.646 960.071 113.677 960.071 121.542V128.026H896.946V116.308H945.462V115.214C945.254 111.464 944.498 107.818 943.196 104.276C941.894 100.683 939.811 97.74 936.946 95.4483C934.082 93.1046 930.175 91.9327 925.227 91.9327C920.852 91.9327 916.972 93.1827 913.587 95.6827C910.254 98.1306 907.623 101.724 905.696 106.464C903.821 111.151 902.884 116.881 902.884 123.651V127.011C902.884 132.375 903.873 137.271 905.852 141.698C907.832 146.073 910.696 149.589 914.446 152.245C918.196 154.849 922.675 156.151 927.884 156.151C932.988 156.151 937.311 155.11 940.852 153.026C944.394 150.943 947.493 148.157 950.149 144.667L958.977 151.542C956.269 155.709 952.363 159.485 947.259 162.87C942.207 166.204 935.488 167.87 927.102 167.87Z" fill="#1E1E1E"/>
<path d="M235.429 112.026C149.238 65.6264 54.5343 118.026 17.9564 150.026L-1.52588e-05 274.026L983.613 244.026C981.617 190.026 989.997 94.8 983.613 82C975.632 66.0001 940.315 121.744 911.787 134C897.821 140 879.795 123.774 851.932 106C829.986 92 748.184 118.026 730.228 134.026C712.271 150.026 602.538 128 550.663 98C509.164 74 436.274 106.693 397.036 134.026C379.08 146.026 321.619 158.426 235.429 112.026Z" fill="#578DCD"/>
</g>
</g>
</svg>
