<svg width="224" height="224" viewBox="0 0 224 224" fill="none" xmlns="http://www.w3.org/2000/svg">
<mask id="mask0_101_5" style="mask-type:alpha" maskUnits="userSpaceOnUse" x="0" y="0" width="224" height="224">
<rect width="224" height="224" fill="#D9D9D9"/>
</mask>
<g mask="url(#mask0_101_5)">
<rect width="224" height="224" fill="white"/>
<mask id="mask1_101_5" style="mask-type:alpha" maskUnits="userSpaceOnUse" x="25" y="61" width="181" height="91">
<path d="M35.3125 109.375L35.1875 99.8125H56.0625C61.2292 99.8125 65.3958 98.5208 68.5625 95.9375C71.7292 93.3542 73.3125 89.75 73.3125 85.125C73.3125 80.125 71.8542 76.5 68.9375 74.25C66.0625 71.9583 61.6667 70.8125 55.75 70.8125H38V152H25.875V61H55.75C65.0417 61 72.3125 62.9375 77.5625 66.8125C82.8125 70.6458 85.4375 76.7917 85.4375 85.25C85.4375 89 84.4792 92.3958 82.5625 95.4375C80.6458 98.4375 77.9583 100.896 74.5 102.812C71.0833 104.729 67.1042 105.958 62.5625 106.5L58.3125 109.375H35.3125ZM30.5 152L37.4375 142.25H57.75C63.4583 142.25 67.875 140.771 71 137.812C74.125 134.854 75.6875 130.875 75.6875 125.875C75.6875 122.5 75.0833 119.583 73.875 117.125C72.6667 114.625 70.7917 112.708 68.25 111.375C65.7083 110.042 62.3958 109.375 58.3125 109.375H41.125L41.25 99.8125H64.75L67.3125 103.312C71.6875 103.688 75.3958 104.917 78.4375 107C81.4792 109.083 83.7917 111.75 85.375 115C87 118.25 87.8125 121.833 87.8125 125.75C87.8125 134.292 85.0625 140.812 79.5625 145.312C74.1042 149.771 66.8333 152 57.75 152H30.5ZM147.562 61H156.438L151.312 85.5625L131.938 152H123.125L129.562 124.562L147.562 61ZM125.312 123.375L129.562 152H120.875L98.875 61H111L125.312 123.375ZM193.688 61H205.875L183.875 152H175.188L179.688 123.312L193.688 61ZM175.25 124.562L181.625 152H172.812L154.125 85.5625L149.062 61H157.75L175.25 124.562Z" fill="#1E1E1E"/>
</mask>
<g mask="url(#mask1_101_5)">
<path d="M35.3125 109.375L35.1875 99.8125H56.0625C61.2292 99.8125 65.3958 98.5208 68.5625 95.9375C71.7292 93.3542 73.3125 89.75 73.3125 85.125C73.3125 80.125 71.8542 76.5 68.9375 74.25C66.0625 71.9583 61.6667 70.8125 55.75 70.8125H38V152H25.875V61H55.75C65.0417 61 72.3125 62.9375 77.5625 66.8125C82.8125 70.6458 85.4375 76.7917 85.4375 85.25C85.4375 89 84.4792 92.3958 82.5625 95.4375C80.6458 98.4375 77.9583 100.896 74.5 102.812C71.0833 104.729 67.1042 105.958 62.5625 106.5L58.3125 109.375H35.3125ZM30.5 152L37.4375 142.25H57.75C63.4583 142.25 67.875 140.771 71 137.812C74.125 134.854 75.6875 130.875 75.6875 125.875C75.6875 122.5 75.0833 119.583 73.875 117.125C72.6667 114.625 70.7917 112.708 68.25 111.375C65.7083 110.042 62.3958 109.375 58.3125 109.375H41.125L41.25 99.8125H64.75L67.3125 103.312C71.6875 103.688 75.3958 104.917 78.4375 107C81.4792 109.083 83.7917 111.75 85.375 115C87 118.25 87.8125 121.833 87.8125 125.75C87.8125 134.292 85.0625 140.812 79.5625 145.312C74.1042 149.771 66.8333 152 57.75 152H30.5ZM147.562 61H156.438L151.312 85.5625L131.938 152H123.125L129.562 124.562L147.562 61ZM125.312 123.375L129.562 152H120.875L98.875 61H111L125.312 123.375ZM193.688 61H205.875L183.875 152H175.188L179.688 123.312L193.688 61ZM175.25 124.562L181.625 152H172.812L154.125 85.5625L149.062 61H157.75L175.25 124.562Z" fill="#1E1E1E"/>
<path d="M-276.378 102.907C-339.575 56.4809 -409.014 108.911 -435.834 140.929L-449 265L272.209 234.983C270.746 180.952 276.89 85.6712 272.209 72.8639C266.357 56.8548 240.462 112.631 219.544 124.894C209.304 130.897 201.568 104.769 175.657 96.8776C158 91.5 102.5 115.5 86.4207 124.92C68.5361 135.398 -7.2048 118.89 -45.2401 88.873C-75.6684 64.8594 -129.113 97.5711 -157.883 124.92C-171.049 136.927 -213.181 149.334 -276.378 102.907Z" fill="#578DCD"/>
</g>
</g>
</svg>
