<svg width="256" height="84" viewBox="0 0 256 84" fill="none" xmlns="http://www.w3.org/2000/svg">
<mask id="mask0_1_24" style="mask-type:alpha" maskUnits="userSpaceOnUse" x="0" y="0" width="256" height="84">
<rect width="256" height="84" fill="#D9D9D9"/>
</mask>
<g mask="url(#mask0_1_24)">
<rect y="-9" width="256" height="93" fill="white"/>
<path d="M61.2441 65.1973C61.2441 64.9368 61.1855 64.696 61.0684 64.4746C60.9577 64.2467 60.7298 64.0417 60.3848 63.8594C60.0397 63.6706 59.5189 63.5046 58.8223 63.3613C58.041 63.1986 57.3639 62.9935 56.791 62.7461C56.2246 62.4922 55.7852 62.1699 55.4727 61.7793C55.1667 61.3887 55.0137 60.9036 55.0137 60.3242C55.0137 59.7643 55.1732 59.2533 55.4922 58.791C55.8177 58.3223 56.2734 57.9479 56.8594 57.668C57.4518 57.3815 58.1419 57.2383 58.9297 57.2383C59.776 57.2383 60.4987 57.388 61.0977 57.6875C61.7031 57.9805 62.1654 58.3776 62.4844 58.8789C62.8034 59.3737 62.9629 59.9238 62.9629 60.5293H61.1367C61.1367 60.0931 60.9447 59.6797 60.5605 59.2891C60.1829 58.8984 59.6393 58.7031 58.9297 58.7031C58.4349 58.7031 58.0312 58.7812 57.7188 58.9375C57.4128 59.0872 57.1882 59.2826 57.0449 59.5234C56.9082 59.7578 56.8398 60.0052 56.8398 60.2656C56.8398 60.526 56.9049 60.7539 57.0352 60.9492C57.1654 61.138 57.403 61.3073 57.748 61.457C58.0996 61.6068 58.6074 61.7565 59.2715 61.9062C60.1374 62.1016 60.8503 62.3359 61.4102 62.6094C61.9701 62.8828 62.3867 63.2181 62.6602 63.6152C62.9336 64.0124 63.0703 64.4974 63.0703 65.0703C63.0703 65.6823 62.901 66.2259 62.5625 66.7012C62.224 67.1699 61.7487 67.5378 61.1367 67.8047C60.5247 68.0651 59.8053 68.1953 58.9785 68.1953C58.0475 68.1953 57.2598 68.0293 56.6152 67.6973C55.9707 67.3652 55.4824 66.9388 55.1504 66.418C54.8184 65.8906 54.6523 65.334 54.6523 64.748H56.4785C56.5111 65.2428 56.6543 65.6367 56.9082 65.9297C57.1686 66.2161 57.4844 66.4212 57.8555 66.5449C58.2331 66.6686 58.6074 66.7305 58.9785 66.7305C59.4733 66.7305 59.8867 66.6654 60.2188 66.5352C60.5573 66.3984 60.8112 66.2161 60.9805 65.9883C61.1562 65.7539 61.2441 65.4902 61.2441 65.1973ZM71.332 57.4336H73.2754L69.0371 69.6309C68.9395 69.8913 68.8092 70.1712 68.6465 70.4707C68.4902 70.7767 68.2884 71.0664 68.041 71.3398C67.8001 71.6133 67.5039 71.8346 67.1523 72.0039C66.8008 72.1797 66.3841 72.2676 65.9023 72.2676C65.8047 72.2676 65.6875 72.2578 65.5508 72.2383C65.4141 72.2188 65.2839 72.196 65.1602 72.1699C65.0365 72.1504 64.9421 72.1309 64.877 72.1113V70.6562C64.929 70.6628 65.0104 70.6725 65.1211 70.6855C65.2383 70.6986 65.3197 70.7051 65.3652 70.7051C65.9772 70.7051 66.4557 70.5781 66.8008 70.3242C67.1458 70.0703 67.4258 69.6178 67.6406 68.9668L68.3926 66.9062L71.332 57.4336ZM68.9883 65.6465L69.457 67.5508L68.1484 68.2051L64.2715 57.4336H66.2637L68.9883 65.6465ZM76.7227 68H74.8965V57.4336H76.625L76.7227 59.6895V68ZM75.5312 62.2773C75.5443 61.3138 75.7298 60.4544 76.0879 59.6992C76.446 58.9375 76.944 58.3385 77.582 57.9023C78.2266 57.4596 78.9753 57.2383 79.8281 57.2383C80.5247 57.2383 81.1237 57.3685 81.625 57.6289C82.1328 57.8828 82.5234 58.2897 82.7969 58.8496C83.0768 59.4095 83.2168 60.1517 83.2168 61.0762V68H81.3906V61.0566C81.3906 60.5033 81.3092 60.0573 81.1465 59.7188C80.9902 59.3802 80.7559 59.1361 80.4434 58.9863C80.1309 58.8301 79.7467 58.752 79.291 58.752C78.8418 58.752 78.4349 58.8464 78.0703 59.0352C77.7057 59.224 77.39 59.4844 77.123 59.8164C76.8561 60.1484 76.651 60.5293 76.5078 60.959C76.3646 61.3822 76.293 61.8314 76.293 62.3066L75.5312 62.2773ZM90.1895 66.7305C90.6191 66.7305 91.0163 66.6426 91.3809 66.4668C91.7454 66.2845 92.0449 66.0371 92.2793 65.7246C92.5137 65.4121 92.6471 65.0573 92.6797 64.6602H94.4082C94.3757 65.2852 94.1641 65.8678 93.7734 66.4082C93.3828 66.9421 92.875 67.375 92.25 67.707C91.625 68.0326 90.9382 68.1953 90.1895 68.1953C89.1283 68.1953 88.2493 67.9544 87.5527 67.4727C86.8561 66.9844 86.3353 66.3398 85.9902 65.5391C85.6517 64.7383 85.4824 63.8659 85.4824 62.9219V62.5117C85.4824 61.5612 85.6549 60.6888 86 59.8945C86.3451 59.0938 86.8659 58.4525 87.5625 57.9707C88.2591 57.4824 89.1348 57.2383 90.1895 57.2383C91.0163 57.2383 91.7389 57.4076 92.3574 57.7461C92.9824 58.0781 93.4707 58.5339 93.8223 59.1133C94.1803 59.6862 94.3757 60.3372 94.4082 61.0664H92.6797C92.6471 60.6302 92.5234 60.2331 92.3086 59.875C92.1003 59.5169 91.8138 59.2337 91.4492 59.0254C91.0911 58.8105 90.6712 58.7031 90.1895 58.7031C89.4538 58.7031 88.8743 58.8919 88.4512 59.2695C88.0345 59.6471 87.7383 60.1289 87.5625 60.7148C87.3932 61.2943 87.3086 61.8932 87.3086 62.5117V62.9219C87.3086 63.5404 87.3932 64.1426 87.5625 64.7285C87.7318 65.3145 88.0247 65.7962 88.4414 66.1738C88.8646 66.5449 89.4473 66.7305 90.1895 66.7305ZM107.631 60.7539C107.631 60.1224 107.442 59.6211 107.064 59.25C106.693 58.8724 106.143 58.6836 105.414 58.6836C104.965 58.6836 104.568 58.7617 104.223 58.918C103.884 59.0742 103.62 59.2793 103.432 59.5332C103.243 59.7871 103.148 60.0638 103.148 60.3633H101.322C101.322 59.8555 101.495 59.3639 101.84 58.8887C102.185 58.4069 102.67 58.013 103.295 57.707C103.926 57.3945 104.669 57.2383 105.521 57.2383C106.29 57.2383 106.97 57.3685 107.562 57.6289C108.155 57.8893 108.617 58.2832 108.949 58.8105C109.288 59.3314 109.457 59.9857 109.457 60.7734V65.6953C109.457 66.0469 109.486 66.4212 109.545 66.8184C109.61 67.2155 109.704 67.5573 109.828 67.8438V68H107.924C107.833 67.7917 107.761 67.515 107.709 67.1699C107.657 66.8184 107.631 66.4928 107.631 66.1934V60.7539ZM107.963 62.8633H106.146C105.118 62.8633 104.324 63.026 103.764 63.3516C103.204 63.6771 102.924 64.1654 102.924 64.8164C102.924 65.3242 103.093 65.7539 103.432 66.1055C103.777 66.457 104.278 66.6328 104.936 66.6328C105.489 66.6328 105.977 66.5156 106.4 66.2812C106.824 66.0469 107.159 65.7572 107.406 65.4121C107.654 65.0671 107.787 64.735 107.807 64.416L108.588 65.2852C108.542 65.5586 108.419 65.8613 108.217 66.1934C108.015 66.5254 107.745 66.8444 107.406 67.1504C107.074 67.4499 106.677 67.7005 106.215 67.9023C105.759 68.0977 105.245 68.1953 104.672 68.1953C103.956 68.1953 103.327 68.0586 102.787 67.7852C102.253 67.5052 101.837 67.1276 101.537 66.6523C101.244 66.1771 101.098 65.6497 101.098 65.0703C101.098 63.931 101.527 63.0684 102.387 62.4824C103.246 61.89 104.402 61.5938 105.854 61.5938H107.943L107.963 62.8633ZM114.125 68H112.299V57.4336H114.027L114.125 59.6895V68ZM112.934 62.2773C112.947 61.3138 113.132 60.4544 113.49 59.6992C113.848 58.9375 114.346 58.3385 114.984 57.9023C115.629 57.4596 116.378 57.2383 117.23 57.2383C117.927 57.2383 118.526 57.3685 119.027 57.6289C119.535 57.8828 119.926 58.2897 120.199 58.8496C120.479 59.4095 120.619 60.1517 120.619 61.0762V68H118.793V61.0566C118.793 60.5033 118.712 60.0573 118.549 59.7188C118.393 59.3802 118.158 59.1361 117.846 58.9863C117.533 58.8301 117.149 58.752 116.693 58.752C116.244 58.752 115.837 58.8464 115.473 59.0352C115.108 59.224 114.792 59.4844 114.525 59.8164C114.258 60.1484 114.053 60.5293 113.91 60.959C113.767 61.3822 113.695 61.8314 113.695 62.3066L112.934 62.2773ZM130.014 53H131.84V68H130.17L130.014 65.9492V53ZM122.914 62.6289C122.914 61.5547 123.087 60.6139 123.432 59.8066C123.783 58.9928 124.271 58.3613 124.896 57.9121C125.521 57.4629 126.254 57.2383 127.094 57.2383C127.979 57.2383 128.718 57.4434 129.311 57.8535C129.903 58.2572 130.365 58.8333 130.697 59.582C131.036 60.3307 131.254 61.2227 131.352 62.2578V63.2051C131.254 64.2272 131.039 65.1126 130.707 65.8613C130.375 66.6035 129.91 67.1797 129.311 67.5898C128.718 67.9935 127.973 68.1953 127.074 68.1953C126.247 68.1953 125.521 67.9642 124.896 67.502C124.271 67.0332 123.783 66.3952 123.432 65.5879C123.087 64.7806 122.914 63.8626 122.914 62.834V62.6289ZM124.74 62.834C124.74 63.5371 124.835 64.1784 125.023 64.7578C125.219 65.3372 125.521 65.8027 125.932 66.1543C126.342 66.4993 126.872 66.6719 127.523 66.6719C128.122 66.6719 128.614 66.5449 128.998 66.291C129.389 66.0371 129.701 65.7018 129.936 65.2852C130.17 64.8685 130.352 64.416 130.482 63.9277V61.5547C130.404 61.1966 130.29 60.8516 130.141 60.5195C129.997 60.181 129.809 59.8815 129.574 59.6211C129.346 59.3542 129.063 59.1426 128.725 58.9863C128.393 58.8301 127.999 58.752 127.543 58.752C126.885 58.752 126.348 58.9277 125.932 59.2793C125.521 59.6309 125.219 60.1029 125.023 60.6953C124.835 61.2812 124.74 61.9258 124.74 62.6289V62.834ZM141.43 53V65.9492L141.273 68H139.604V53H141.43ZM148.559 62.834C148.559 63.8626 148.399 64.7806 148.08 65.5879C147.761 66.3952 147.296 67.0332 146.684 67.502C146.072 67.9642 145.329 68.1953 144.457 68.1953C143.559 68.1953 142.81 67.9935 142.211 67.5898C141.612 67.1797 141.146 66.6035 140.814 65.8613C140.482 65.1126 140.264 64.2272 140.16 63.2051V62.2578C140.264 61.2227 140.482 60.3307 140.814 59.582C141.146 58.8333 141.609 58.2572 142.201 57.8535C142.8 57.4434 143.546 57.2383 144.438 57.2383C145.323 57.2383 146.072 57.4629 146.684 57.9121C147.296 58.3613 147.761 58.9928 148.08 59.8066C148.399 60.6139 148.559 61.5547 148.559 62.6289V62.834ZM146.732 62.6289C146.732 61.9258 146.645 61.2812 146.469 60.6953C146.293 60.1029 146.003 59.6309 145.6 59.2793C145.202 58.9277 144.662 58.752 143.979 58.752C143.529 58.752 143.135 58.8301 142.797 58.9863C142.465 59.1426 142.182 59.3542 141.947 59.6211C141.713 59.8815 141.521 60.181 141.371 60.5195C141.228 60.8516 141.12 61.1966 141.049 61.5547V63.9277C141.153 64.3835 141.322 64.8229 141.557 65.2461C141.791 65.6628 142.107 66.0046 142.504 66.2715C142.908 66.5384 143.406 66.6719 143.998 66.6719C144.649 66.6719 145.173 66.4993 145.57 66.1543C145.974 65.8027 146.267 65.3372 146.449 64.7578C146.638 64.1784 146.732 63.5371 146.732 62.834V62.6289ZM157.064 60.7539C157.064 60.1224 156.876 59.6211 156.498 59.25C156.127 58.8724 155.577 58.6836 154.848 58.6836C154.398 58.6836 154.001 58.7617 153.656 58.918C153.318 59.0742 153.054 59.2793 152.865 59.5332C152.676 59.7871 152.582 60.0638 152.582 60.3633H150.756C150.756 59.8555 150.928 59.3639 151.273 58.8887C151.618 58.4069 152.104 58.013 152.729 57.707C153.36 57.3945 154.102 57.2383 154.955 57.2383C155.723 57.2383 156.404 57.3685 156.996 57.6289C157.589 57.8893 158.051 58.2832 158.383 58.8105C158.721 59.3314 158.891 59.9857 158.891 60.7734V65.6953C158.891 66.0469 158.92 66.4212 158.979 66.8184C159.044 67.2155 159.138 67.5573 159.262 67.8438V68H157.357C157.266 67.7917 157.195 67.515 157.143 67.1699C157.09 66.8184 157.064 66.4928 157.064 66.1934V60.7539ZM157.396 62.8633H155.58C154.551 62.8633 153.757 63.026 153.197 63.3516C152.637 63.6771 152.357 64.1654 152.357 64.8164C152.357 65.3242 152.527 65.7539 152.865 66.1055C153.21 66.457 153.712 66.6328 154.369 66.6328C154.923 66.6328 155.411 66.5156 155.834 66.2812C156.257 66.0469 156.592 65.7572 156.84 65.4121C157.087 65.0671 157.221 64.735 157.24 64.416L158.021 65.2852C157.976 65.5586 157.852 65.8613 157.65 66.1934C157.449 66.5254 157.178 66.8444 156.84 67.1504C156.508 67.4499 156.111 67.7005 155.648 67.9023C155.193 68.0977 154.678 68.1953 154.105 68.1953C153.389 68.1953 152.761 68.0586 152.221 67.7852C151.687 67.5052 151.27 67.1276 150.971 66.6523C150.678 66.1771 150.531 65.6497 150.531 65.0703C150.531 63.931 150.961 63.0684 151.82 62.4824C152.68 61.89 153.835 61.5938 155.287 61.5938H157.377L157.396 62.8633ZM165.971 66.7305C166.4 66.7305 166.798 66.6426 167.162 66.4668C167.527 66.2845 167.826 66.0371 168.061 65.7246C168.295 65.4121 168.428 65.0573 168.461 64.6602H170.189C170.157 65.2852 169.945 65.8678 169.555 66.4082C169.164 66.9421 168.656 67.375 168.031 67.707C167.406 68.0326 166.719 68.1953 165.971 68.1953C164.91 68.1953 164.031 67.9544 163.334 67.4727C162.637 66.9844 162.117 66.3398 161.771 65.5391C161.433 64.7383 161.264 63.8659 161.264 62.9219V62.5117C161.264 61.5612 161.436 60.6888 161.781 59.8945C162.126 59.0938 162.647 58.4525 163.344 57.9707C164.04 57.4824 164.916 57.2383 165.971 57.2383C166.798 57.2383 167.52 57.4076 168.139 57.7461C168.764 58.0781 169.252 58.5339 169.604 59.1133C169.962 59.6862 170.157 60.3372 170.189 61.0664H168.461C168.428 60.6302 168.305 60.2331 168.09 59.875C167.882 59.5169 167.595 59.2337 167.23 59.0254C166.872 58.8105 166.452 58.7031 165.971 58.7031C165.235 58.7031 164.656 58.8919 164.232 59.2695C163.816 59.6471 163.52 60.1289 163.344 60.7148C163.174 61.2943 163.09 61.8932 163.09 62.5117V62.9219C163.09 63.5404 163.174 64.1426 163.344 64.7285C163.513 65.3145 163.806 65.7962 164.223 66.1738C164.646 66.5449 165.229 66.7305 165.971 66.7305ZM174.057 68H172.23V53H174.057V68ZM175.912 62.3555L173.314 65.0312L173.168 63.1172L175.023 60.9199L178.285 57.4336H180.502L175.912 62.3555ZM175.082 62.9512L176.029 61.3496L180.99 68H178.842L175.082 62.9512ZM188.842 57.4336H190.668V68H188.93L188.842 65.5586V57.4336ZM189.945 63.3125C189.945 64.25 189.812 65.0866 189.545 65.8223C189.278 66.5579 188.842 67.1374 188.236 67.5605C187.631 67.9837 186.82 68.1953 185.805 68.1953C184.77 68.1953 183.933 67.8893 183.295 67.2773C182.657 66.6654 182.338 65.6562 182.338 64.25V57.4336H184.164V64.2695C184.164 64.9076 184.255 65.4023 184.438 65.7539C184.626 66.099 184.867 66.3398 185.16 66.4766C185.46 66.6068 185.772 66.6719 186.098 66.6719C186.866 66.6719 187.475 66.5254 187.924 66.2324C188.373 65.9329 188.695 65.5293 188.891 65.0215C189.086 64.5137 189.184 63.9505 189.184 63.332L189.945 63.3125ZM195.238 72.0625H193.412V57.4336H195.072L195.238 59.4648V72.0625ZM202.348 62.834C202.348 63.8626 202.188 64.7806 201.869 65.5879C201.55 66.3952 201.085 67.0332 200.473 67.502C199.867 67.9642 199.128 68.1953 198.256 68.1953C197.351 68.1953 196.592 68 195.98 67.6094C195.368 67.2188 194.89 66.6654 194.545 65.9492C194.2 65.2266 193.975 64.3737 193.871 63.3906V62.2578C193.975 61.2227 194.2 60.3307 194.545 59.582C194.896 58.8333 195.375 58.2572 195.98 57.8535C196.592 57.4434 197.341 57.2383 198.227 57.2383C199.112 57.2383 199.861 57.4629 200.473 57.9121C201.085 58.3613 201.55 58.9928 201.869 59.8066C202.188 60.6139 202.348 61.5547 202.348 62.6289V62.834ZM200.521 62.6289C200.521 61.9258 200.421 61.2812 200.219 60.6953C200.023 60.1029 199.714 59.6309 199.291 59.2793C198.874 58.9277 198.337 58.752 197.68 58.752C197.23 58.752 196.84 58.8301 196.508 58.9863C196.176 59.1426 195.893 59.3542 195.658 59.6211C195.424 59.8815 195.232 60.181 195.082 60.5195C194.939 60.8516 194.831 61.1966 194.76 61.5547V64.1035C194.89 64.5592 195.069 64.9889 195.297 65.3926C195.531 65.7897 195.84 66.112 196.225 66.3594C196.615 66.6068 197.107 66.7305 197.699 66.7305C198.35 66.7305 198.884 66.5514 199.301 66.1934C199.717 65.8353 200.023 65.3633 200.219 64.7773C200.421 64.1849 200.521 63.5371 200.521 62.834V62.6289Z" fill="#578DCD"/>
<mask id="mask1_1_24" style="mask-type:alpha" maskUnits="userSpaceOnUse" x="14" y="11" width="229" height="39">
<path d="M18.4358 29.5222L18.3967 25.2449H24.4709C26.0204 25.2449 27.1663 24.9584 27.9084 24.3855C28.6506 23.7996 29.0217 22.9597 29.0217 21.866C29.0217 20.616 28.6571 19.7175 27.928 19.1707C27.1988 18.6238 26.0465 18.3504 24.4709 18.3504H20.5647V41.8269H14.4124V13.3894H24.4709C27.8173 13.3894 30.4345 14.0274 32.3225 15.3035C34.2105 16.5795 35.1545 18.5457 35.1545 21.2019C35.1545 22.3608 34.8876 23.448 34.3538 24.4636C33.8329 25.4662 32.9996 26.28 31.8538 26.905C30.7079 27.53 29.217 27.8621 27.3811 27.9011L25.6624 29.5222H18.4358ZM16.7561 41.8269L19.1389 36.8855H25.4084C26.8798 36.8855 27.954 36.5535 28.6311 35.8894C29.3082 35.2123 29.6467 34.3725 29.6467 33.3699C29.6467 32.5756 29.51 31.892 29.2366 31.3191C28.9631 30.7462 28.5334 30.3035 27.9475 29.991C27.3746 29.6785 26.6129 29.5222 25.6624 29.5222H19.9592L19.9983 25.2449H27.0491L28.4749 26.9441C30.2327 26.905 31.6454 27.198 32.7131 27.823C33.7808 28.435 34.5556 29.2423 35.0374 30.2449C35.5191 31.2475 35.76 32.3087 35.76 33.4285C35.76 36.2019 34.8681 38.2983 33.0842 39.7175C31.3004 41.1238 28.7418 41.8269 25.4084 41.8269H16.7561ZM51.0139 27.7449C51.0139 26.7944 50.7795 26.0392 50.3108 25.4793C49.842 24.9194 49.0933 24.6394 48.0647 24.6394C47.4788 24.6394 46.9709 24.7371 46.5413 24.9324C46.1116 25.1277 45.7861 25.4076 45.5647 25.7722C45.3433 26.1238 45.2327 26.56 45.2327 27.0808H39.3342C39.3342 25.8308 39.7053 24.698 40.4475 23.6824C41.1897 22.6537 42.2379 21.8334 43.592 21.2215C44.9462 20.6095 46.5413 20.3035 48.3772 20.3035C50.0178 20.3035 51.4827 20.5834 52.7717 21.1433C54.0608 21.6902 55.0764 22.517 55.8186 23.6238C56.5608 24.7306 56.9319 26.1173 56.9319 27.784V36.6121C56.9319 37.8621 57.0035 38.8517 57.1467 39.5808C57.303 40.31 57.5178 40.948 57.7913 41.4949V41.8269H51.8538C51.5673 41.228 51.3525 40.4793 51.2092 39.5808C51.079 38.6824 51.0139 37.7709 51.0139 36.8465V27.7449ZM51.8147 32.2957H48.8069C47.3746 32.2957 46.3394 32.6082 45.7014 33.2332C45.0634 33.8451 44.7444 34.5873 44.7444 35.4597C44.7444 36.1238 44.9788 36.6707 45.4475 37.1004C45.9163 37.53 46.5478 37.7449 47.342 37.7449C48.1624 37.7449 48.8655 37.5886 49.4514 37.2761C50.0504 36.9506 50.5061 36.5665 50.8186 36.1238C51.1441 35.6681 51.3004 35.2514 51.2874 34.8738L52.8108 37.4129C52.6025 37.9337 52.3225 38.4741 51.9709 39.034C51.6324 39.5938 51.1962 40.1147 50.6624 40.5965C50.1285 41.0782 49.4775 41.4688 48.7092 41.7683C47.954 42.0678 47.0621 42.2175 46.0334 42.2175C44.7053 42.2175 43.4944 41.9506 42.4006 41.4168C41.3069 40.8699 40.441 40.1212 39.803 39.1707C39.165 38.2071 38.8459 37.1069 38.8459 35.8699C38.8459 33.6563 39.6663 31.9441 41.3069 30.7332C42.9475 29.5092 45.3889 28.8972 48.6311 28.8972H51.7756L51.8147 32.2957ZM69.9788 37.4715C70.6428 37.4715 71.2288 37.3478 71.7366 37.1004C72.2444 36.853 72.635 36.5014 72.9084 36.0457C73.1949 35.5899 73.3446 35.0496 73.3577 34.4246H78.9045C78.8915 35.948 78.4944 37.2957 77.7131 38.4675C76.9319 39.6394 75.8772 40.5574 74.5491 41.2215C73.2209 41.8855 71.7301 42.2175 70.0764 42.2175C67.8889 42.2175 66.066 41.7423 64.6077 40.7918C63.1624 39.8412 62.0751 38.5587 61.3459 36.9441C60.6298 35.3295 60.2717 33.5261 60.2717 31.534V31.0066C60.2717 29.0014 60.6298 27.1915 61.3459 25.5769C62.0751 23.9623 63.1624 22.6798 64.6077 21.7293C66.066 20.7787 67.8824 20.3035 70.0569 20.3035C71.8017 20.3035 73.3316 20.642 74.6467 21.3191C75.9749 21.9832 77.01 22.9402 77.7522 24.1902C78.5074 25.4272 78.8915 26.9116 78.9045 28.6433H73.3577C73.3446 27.9793 73.2079 27.3803 72.9475 26.8465C72.7001 26.2996 72.3225 25.8634 71.8147 25.5379C71.3069 25.2123 70.6819 25.0496 69.9397 25.0496C68.898 25.0496 68.1038 25.3295 67.5569 25.8894C67.023 26.4493 66.6584 27.185 66.4631 28.0965C66.2678 28.9949 66.1702 29.9649 66.1702 31.0066V31.534C66.1702 32.5886 66.2613 33.5717 66.4436 34.4832C66.6389 35.3816 67.01 36.1043 67.5569 36.6511C68.1168 37.198 68.9241 37.4715 69.9788 37.4715ZM87.9475 41.8269H82.0491V11.8074H87.9475V41.8269ZM92.1467 31.2996L87.1467 36.2996L84.9788 32.0613L88.9436 26.9441L94.178 20.6941H101.268L92.1467 31.2996ZM89.0803 32.1785L93.1819 28.6824L101.893 41.8269H95.1155L89.0803 32.1785ZM115.975 20.6941H121.873V41.8269H116.346L115.975 36.7293V20.6941ZM118.338 32.3152C118.338 34.2162 118.045 35.9155 117.459 37.4129C116.886 38.8972 116.014 40.0691 114.842 40.9285C113.683 41.7879 112.218 42.2175 110.448 42.2175C108.364 42.2175 106.671 41.6121 105.369 40.4011C104.08 39.1772 103.436 37.1655 103.436 34.366V20.6941H109.334V34.405C109.334 35.1212 109.451 35.7071 109.686 36.1629C109.933 36.6056 110.272 36.9311 110.701 37.1394C111.144 37.3347 111.645 37.4324 112.205 37.4324C113.338 37.4324 114.224 37.211 114.862 36.7683C115.513 36.3256 115.968 35.7201 116.229 34.9519C116.502 34.1837 116.639 33.3178 116.639 32.3543L118.338 32.3152ZM131.932 49.9519H126.033V20.6941H131.502L131.932 24.7566V49.9519ZM145.213 31.4363C145.213 33.4806 144.894 35.3165 144.256 36.9441C143.631 38.5717 142.707 39.8608 141.483 40.8113C140.272 41.7488 138.774 42.2175 136.99 42.2175C135.259 42.2175 133.833 41.7488 132.713 40.8113C131.606 39.8608 130.747 38.5847 130.135 36.9832C129.523 35.3816 129.08 33.6108 128.807 31.6707V31.0652C129.067 28.9949 129.503 27.1524 130.115 25.5379C130.74 23.9103 131.606 22.6342 132.713 21.7097C133.833 20.7722 135.252 20.3035 136.971 20.3035C138.755 20.3035 140.259 20.7527 141.483 21.6511C142.707 22.5366 143.631 23.7866 144.256 25.4011C144.894 27.0027 145.213 28.8777 145.213 31.0261V31.4363ZM139.315 31.0261C139.315 29.8803 139.184 28.8647 138.924 27.9793C138.677 27.0808 138.267 26.3777 137.694 25.8699C137.121 25.3491 136.359 25.0886 135.408 25.0886C134.679 25.0886 134.054 25.2058 133.533 25.4402C133.026 25.6616 132.602 25.9936 132.264 26.4363C131.938 26.879 131.691 27.4259 131.522 28.0769C131.365 28.7149 131.274 29.4571 131.248 30.3035V32.4519C131.3 33.4155 131.463 34.2748 131.737 35.03C132.023 35.7853 132.466 36.3842 133.065 36.8269C133.664 37.2566 134.458 37.4715 135.448 37.4715C136.411 37.4715 137.173 37.198 137.733 36.6511C138.293 36.1043 138.696 35.3751 138.944 34.4636C139.191 33.5392 139.315 32.53 139.315 31.4363V31.0261ZM161.365 13.3894H164.647L165.526 16.7293L159.549 41.8269H155.994L155.76 38.0574L161.365 13.3894ZM157.83 38.116L157.264 41.8269H153.338L147.088 13.3894H153.201L157.83 38.116ZM174.705 13.3894H180.799L174.569 41.8269H170.623L170.135 38.0183L174.705 13.3894ZM172.205 38.1746L171.912 41.8269H168.358L162.342 16.7097L163.299 13.3894H166.541L172.205 38.1746ZM194.022 27.7449C194.022 26.7944 193.787 26.0392 193.319 25.4793C192.85 24.9194 192.101 24.6394 191.073 24.6394C190.487 24.6394 189.979 24.7371 189.549 24.9324C189.119 25.1277 188.794 25.4076 188.573 25.7722C188.351 26.1238 188.24 26.56 188.24 27.0808H182.342C182.342 25.8308 182.713 24.698 183.455 23.6824C184.198 22.6537 185.246 21.8334 186.6 21.2215C187.954 20.6095 189.549 20.3035 191.385 20.3035C193.026 20.3035 194.49 20.5834 195.78 21.1433C197.069 21.6902 198.084 22.517 198.826 23.6238C199.569 24.7306 199.94 26.1173 199.94 27.784V36.6121C199.94 37.8621 200.011 38.8517 200.155 39.5808C200.311 40.31 200.526 40.948 200.799 41.4949V41.8269H194.862C194.575 41.228 194.36 40.4793 194.217 39.5808C194.087 38.6824 194.022 37.7709 194.022 36.8465V27.7449ZM194.823 32.2957H191.815C190.382 32.2957 189.347 32.6082 188.709 33.2332C188.071 33.8451 187.752 34.5873 187.752 35.4597C187.752 36.1238 187.987 36.6707 188.455 37.1004C188.924 37.53 189.556 37.7449 190.35 37.7449C191.17 37.7449 191.873 37.5886 192.459 37.2761C193.058 36.9506 193.514 36.5665 193.826 36.1238C194.152 35.6681 194.308 35.2514 194.295 34.8738L195.819 37.4129C195.61 37.9337 195.33 38.4741 194.979 39.034C194.64 39.5938 194.204 40.1147 193.67 40.5965C193.136 41.0782 192.485 41.4688 191.717 41.7683C190.962 42.0678 190.07 42.2175 189.041 42.2175C187.713 42.2175 186.502 41.9506 185.408 41.4168C184.315 40.8699 183.449 40.1212 182.811 39.1707C182.173 38.2071 181.854 37.1069 181.854 35.8699C181.854 33.6563 182.674 31.9441 184.315 30.7332C185.955 29.5092 188.397 28.8972 191.639 28.8972H194.783L194.823 32.2957ZM215.584 20.6941H221.756L214.686 41.8269H210.955L211.073 37.4715L215.584 20.6941ZM212.615 37.491L212.713 41.8269H208.983L201.893 20.6941H208.104L212.615 37.491ZM234.022 42.2175C231.795 42.2175 229.888 41.7553 228.299 40.8308C226.724 39.9063 225.513 38.6694 224.666 37.1199C223.833 35.5704 223.416 33.8582 223.416 31.9832V31.2215C223.416 29.1121 223.813 27.2371 224.608 25.5965C225.415 23.9428 226.561 22.6472 228.045 21.7097C229.53 20.7722 231.3 20.3035 233.358 20.3035C235.402 20.3035 237.121 20.7332 238.514 21.5925C239.907 22.4519 240.962 23.6629 241.678 25.2254C242.394 26.7748 242.752 28.5978 242.752 30.6941V33.1941H225.897V29.2293H236.951V28.7605C236.951 28.0313 236.821 27.3868 236.561 26.8269C236.3 26.267 235.903 25.8308 235.369 25.5183C234.849 25.2058 234.165 25.0496 233.319 25.0496C232.355 25.0496 231.58 25.323 230.994 25.8699C230.408 26.4168 229.979 27.1524 229.705 28.0769C229.445 29.0014 229.315 30.0496 229.315 31.2215V31.9832C229.315 33.0639 229.517 34.0144 229.92 34.8347C230.324 35.655 230.903 36.2996 231.658 36.7683C232.414 37.2241 233.325 37.4519 234.393 37.4519C235.395 37.4519 236.333 37.2696 237.205 36.905C238.078 36.5274 238.82 35.9415 239.432 35.1472L242.283 38.409C241.619 39.3595 240.591 40.2319 239.198 41.0261C237.817 41.8204 236.092 42.2175 234.022 42.2175Z" fill="#1E1E1E"/>
</mask>
<g mask="url(#mask1_1_24)">
<path d="M18.4358 29.5222L18.3967 25.2449H24.4709C26.0204 25.2449 27.1663 24.9584 27.9084 24.3855C28.6506 23.7996 29.0217 22.9597 29.0217 21.866C29.0217 20.616 28.6571 19.7175 27.928 19.1707C27.1988 18.6238 26.0465 18.3504 24.4709 18.3504H20.5647V41.8269H14.4124V13.3894H24.4709C27.8173 13.3894 30.4345 14.0274 32.3225 15.3035C34.2105 16.5795 35.1545 18.5457 35.1545 21.2019C35.1545 22.3608 34.8876 23.448 34.3538 24.4636C33.8329 25.4662 32.9996 26.28 31.8538 26.905C30.7079 27.53 29.217 27.8621 27.3811 27.9011L25.6624 29.5222H18.4358ZM16.7561 41.8269L19.1389 36.8855H25.4084C26.8798 36.8855 27.954 36.5535 28.6311 35.8894C29.3082 35.2123 29.6467 34.3725 29.6467 33.3699C29.6467 32.5756 29.51 31.892 29.2366 31.3191C28.9631 30.7462 28.5334 30.3035 27.9475 29.991C27.3746 29.6785 26.6129 29.5222 25.6624 29.5222H19.9592L19.9983 25.2449H27.0491L28.4749 26.9441C30.2327 26.905 31.6454 27.198 32.7131 27.823C33.7808 28.435 34.5556 29.2423 35.0374 30.2449C35.5191 31.2475 35.76 32.3087 35.76 33.4285C35.76 36.2019 34.8681 38.2983 33.0842 39.7175C31.3004 41.1238 28.7418 41.8269 25.4084 41.8269H16.7561ZM51.0139 27.7449C51.0139 26.7944 50.7795 26.0392 50.3108 25.4793C49.842 24.9194 49.0933 24.6394 48.0647 24.6394C47.4788 24.6394 46.9709 24.7371 46.5413 24.9324C46.1116 25.1277 45.7861 25.4076 45.5647 25.7722C45.3433 26.1238 45.2327 26.56 45.2327 27.0808H39.3342C39.3342 25.8308 39.7053 24.698 40.4475 23.6824C41.1897 22.6537 42.2379 21.8334 43.592 21.2215C44.9462 20.6095 46.5413 20.3035 48.3772 20.3035C50.0178 20.3035 51.4827 20.5834 52.7717 21.1433C54.0608 21.6902 55.0764 22.517 55.8186 23.6238C56.5608 24.7306 56.9319 26.1173 56.9319 27.784V36.6121C56.9319 37.8621 57.0035 38.8517 57.1467 39.5808C57.303 40.31 57.5178 40.948 57.7913 41.4949V41.8269H51.8538C51.5673 41.228 51.3525 40.4793 51.2092 39.5808C51.079 38.6824 51.0139 37.7709 51.0139 36.8465V27.7449ZM51.8147 32.2957H48.8069C47.3746 32.2957 46.3394 32.6082 45.7014 33.2332C45.0634 33.8451 44.7444 34.5873 44.7444 35.4597C44.7444 36.1238 44.9788 36.6707 45.4475 37.1004C45.9163 37.53 46.5478 37.7449 47.342 37.7449C48.1624 37.7449 48.8655 37.5886 49.4514 37.2761C50.0504 36.9506 50.5061 36.5665 50.8186 36.1238C51.1441 35.6681 51.3004 35.2514 51.2874 34.8738L52.8108 37.4129C52.6025 37.9337 52.3225 38.4741 51.9709 39.034C51.6324 39.5938 51.1962 40.1147 50.6624 40.5965C50.1285 41.0782 49.4775 41.4688 48.7092 41.7683C47.954 42.0678 47.0621 42.2175 46.0334 42.2175C44.7053 42.2175 43.4944 41.9506 42.4006 41.4168C41.3069 40.8699 40.441 40.1212 39.803 39.1707C39.165 38.2071 38.8459 37.1069 38.8459 35.8699C38.8459 33.6563 39.6663 31.9441 41.3069 30.7332C42.9475 29.5092 45.3889 28.8972 48.6311 28.8972H51.7756L51.8147 32.2957ZM69.9788 37.4715C70.6428 37.4715 71.2288 37.3478 71.7366 37.1004C72.2444 36.853 72.635 36.5014 72.9084 36.0457C73.1949 35.5899 73.3446 35.0496 73.3577 34.4246H78.9045C78.8915 35.948 78.4944 37.2957 77.7131 38.4675C76.9319 39.6394 75.8772 40.5574 74.5491 41.2215C73.2209 41.8855 71.7301 42.2175 70.0764 42.2175C67.8889 42.2175 66.066 41.7423 64.6077 40.7918C63.1624 39.8412 62.0751 38.5587 61.3459 36.9441C60.6298 35.3295 60.2717 33.5261 60.2717 31.534V31.0066C60.2717 29.0014 60.6298 27.1915 61.3459 25.5769C62.0751 23.9623 63.1624 22.6798 64.6077 21.7293C66.066 20.7787 67.8824 20.3035 70.0569 20.3035C71.8017 20.3035 73.3316 20.642 74.6467 21.3191C75.9749 21.9832 77.01 22.9402 77.7522 24.1902C78.5074 25.4272 78.8915 26.9116 78.9045 28.6433H73.3577C73.3446 27.9793 73.2079 27.3803 72.9475 26.8465C72.7001 26.2996 72.3225 25.8634 71.8147 25.5379C71.3069 25.2123 70.6819 25.0496 69.9397 25.0496C68.898 25.0496 68.1038 25.3295 67.5569 25.8894C67.023 26.4493 66.6584 27.185 66.4631 28.0965C66.2678 28.9949 66.1702 29.9649 66.1702 31.0066V31.534C66.1702 32.5886 66.2613 33.5717 66.4436 34.4832C66.6389 35.3816 67.01 36.1043 67.5569 36.6511C68.1168 37.198 68.9241 37.4715 69.9788 37.4715ZM87.9475 41.8269H82.0491V11.8074H87.9475V41.8269ZM92.1467 31.2996L87.1467 36.2996L84.9788 32.0613L88.9436 26.9441L94.178 20.6941H101.268L92.1467 31.2996ZM89.0803 32.1785L93.1819 28.6824L101.893 41.8269H95.1155L89.0803 32.1785ZM115.975 20.6941H121.873V41.8269H116.346L115.975 36.7293V20.6941ZM118.338 32.3152C118.338 34.2162 118.045 35.9155 117.459 37.4129C116.886 38.8972 116.014 40.0691 114.842 40.9285C113.683 41.7879 112.218 42.2175 110.448 42.2175C108.364 42.2175 106.671 41.6121 105.369 40.4011C104.08 39.1772 103.436 37.1655 103.436 34.366V20.6941H109.334V34.405C109.334 35.1212 109.451 35.7071 109.686 36.1629C109.933 36.6056 110.272 36.9311 110.701 37.1394C111.144 37.3347 111.645 37.4324 112.205 37.4324C113.338 37.4324 114.224 37.211 114.862 36.7683C115.513 36.3256 115.968 35.7201 116.229 34.9519C116.502 34.1837 116.639 33.3178 116.639 32.3543L118.338 32.3152ZM131.932 49.9519H126.033V20.6941H131.502L131.932 24.7566V49.9519ZM145.213 31.4363C145.213 33.4806 144.894 35.3165 144.256 36.9441C143.631 38.5717 142.707 39.8608 141.483 40.8113C140.272 41.7488 138.774 42.2175 136.99 42.2175C135.259 42.2175 133.833 41.7488 132.713 40.8113C131.606 39.8608 130.747 38.5847 130.135 36.9832C129.523 35.3816 129.08 33.6108 128.807 31.6707V31.0652C129.067 28.9949 129.503 27.1524 130.115 25.5379C130.74 23.9103 131.606 22.6342 132.713 21.7097C133.833 20.7722 135.252 20.3035 136.971 20.3035C138.755 20.3035 140.259 20.7527 141.483 21.6511C142.707 22.5366 143.631 23.7866 144.256 25.4011C144.894 27.0027 145.213 28.8777 145.213 31.0261V31.4363ZM139.315 31.0261C139.315 29.8803 139.184 28.8647 138.924 27.9793C138.677 27.0808 138.267 26.3777 137.694 25.8699C137.121 25.3491 136.359 25.0886 135.408 25.0886C134.679 25.0886 134.054 25.2058 133.533 25.4402C133.026 25.6616 132.602 25.9936 132.264 26.4363C131.938 26.879 131.691 27.4259 131.522 28.0769C131.365 28.7149 131.274 29.4571 131.248 30.3035V32.4519C131.3 33.4155 131.463 34.2748 131.737 35.03C132.023 35.7853 132.466 36.3842 133.065 36.8269C133.664 37.2566 134.458 37.4715 135.448 37.4715C136.411 37.4715 137.173 37.198 137.733 36.6511C138.293 36.1043 138.696 35.3751 138.944 34.4636C139.191 33.5392 139.315 32.53 139.315 31.4363V31.0261ZM161.365 13.3894H164.647L165.526 16.7293L159.549 41.8269H155.994L155.76 38.0574L161.365 13.3894ZM157.83 38.116L157.264 41.8269H153.338L147.088 13.3894H153.201L157.83 38.116ZM174.705 13.3894H180.799L174.569 41.8269H170.623L170.135 38.0183L174.705 13.3894ZM172.205 38.1746L171.912 41.8269H168.358L162.342 16.7097L163.299 13.3894H166.541L172.205 38.1746ZM194.022 27.7449C194.022 26.7944 193.787 26.0392 193.319 25.4793C192.85 24.9194 192.101 24.6394 191.073 24.6394C190.487 24.6394 189.979 24.7371 189.549 24.9324C189.119 25.1277 188.794 25.4076 188.573 25.7722C188.351 26.1238 188.24 26.56 188.24 27.0808H182.342C182.342 25.8308 182.713 24.698 183.455 23.6824C184.198 22.6537 185.246 21.8334 186.6 21.2215C187.954 20.6095 189.549 20.3035 191.385 20.3035C193.026 20.3035 194.49 20.5834 195.78 21.1433C197.069 21.6902 198.084 22.517 198.826 23.6238C199.569 24.7306 199.94 26.1173 199.94 27.784V36.6121C199.94 37.8621 200.011 38.8517 200.155 39.5808C200.311 40.31 200.526 40.948 200.799 41.4949V41.8269H194.862C194.575 41.228 194.36 40.4793 194.217 39.5808C194.087 38.6824 194.022 37.7709 194.022 36.8465V27.7449ZM194.823 32.2957H191.815C190.382 32.2957 189.347 32.6082 188.709 33.2332C188.071 33.8451 187.752 34.5873 187.752 35.4597C187.752 36.1238 187.987 36.6707 188.455 37.1004C188.924 37.53 189.556 37.7449 190.35 37.7449C191.17 37.7449 191.873 37.5886 192.459 37.2761C193.058 36.9506 193.514 36.5665 193.826 36.1238C194.152 35.6681 194.308 35.2514 194.295 34.8738L195.819 37.4129C195.61 37.9337 195.33 38.4741 194.979 39.034C194.64 39.5938 194.204 40.1147 193.67 40.5965C193.136 41.0782 192.485 41.4688 191.717 41.7683C190.962 42.0678 190.07 42.2175 189.041 42.2175C187.713 42.2175 186.502 41.9506 185.408 41.4168C184.315 40.8699 183.449 40.1212 182.811 39.1707C182.173 38.2071 181.854 37.1069 181.854 35.8699C181.854 33.6563 182.674 31.9441 184.315 30.7332C185.955 29.5092 188.397 28.8972 191.639 28.8972H194.783L194.823 32.2957ZM215.584 20.6941H221.756L214.686 41.8269H210.955L211.073 37.4715L215.584 20.6941ZM212.615 37.491L212.713 41.8269H208.983L201.893 20.6941H208.104L212.615 37.491ZM234.022 42.2175C231.795 42.2175 229.888 41.7553 228.299 40.8308C226.724 39.9063 225.513 38.6694 224.666 37.1199C223.833 35.5704 223.416 33.8582 223.416 31.9832V31.2215C223.416 29.1121 223.813 27.2371 224.608 25.5965C225.415 23.9428 226.561 22.6472 228.045 21.7097C229.53 20.7722 231.3 20.3035 233.358 20.3035C235.402 20.3035 237.121 20.7332 238.514 21.5925C239.907 22.4519 240.962 23.6629 241.678 25.2254C242.394 26.7748 242.752 28.5978 242.752 30.6941V33.1941H225.897V29.2293H236.951V28.7605C236.951 28.0313 236.821 27.3868 236.561 26.8269C236.3 26.267 235.903 25.8308 235.369 25.5183C234.849 25.2058 234.165 25.0496 233.319 25.0496C232.355 25.0496 231.58 25.323 230.994 25.8699C230.408 26.4168 229.979 27.1524 229.705 28.0769C229.445 29.0014 229.315 30.0496 229.315 31.2215V31.9832C229.315 33.0639 229.517 34.0144 229.92 34.8347C230.324 35.655 230.903 36.2996 231.658 36.7683C232.414 37.2241 233.325 37.4519 234.393 37.4519C235.395 37.4519 236.333 37.2696 237.205 36.905C238.078 36.5274 238.82 35.9415 239.432 35.1472L242.283 38.409C241.619 39.3595 240.591 40.2319 239.198 41.0261C237.817 41.8204 236.092 42.2175 234.022 42.2175Z" fill="#1E1E1E"/>
<path d="M58.8571 28.0066C37.3094 16.4066 13.6336 29.5066 4.4891 37.5066L0 68.5066L245.903 61.0066C245.404 47.5066 247.499 23.7 245.903 20.5C243.908 16.5 235.079 30.436 227.947 33.5C224.455 35 219.949 30.9434 212.983 26.5C207.496 23 187.046 29.5066 182.557 33.5066C178.068 37.5066 150.634 32 137.666 24.5C127.291 18.5 109.069 26.6733 99.2591 33.5066C94.77 36.5066 80.4048 39.6066 58.8571 28.0066Z" fill="#578DCD"/>
</g>
</g>
</svg>
